<svg xmlns="http://www.w3.org/2000/svg" viewBox="0 0 520.0 356.0" fill-rule="evenodd" shape-rendering="geometricPrecision">
<path d="M 261.00 2.00 L 261.00 43.00 L 282.00 43.00 L 282.00 22.00 L 325.00 22.00 L 325.00 2.00 L 262.00 2.00 Z M 412.00 2.00 L 412.00 22.00 L 454.00 22.00 L 454.00 2.00 L 413.00 2.00 Z M 345.00 22.00 L 345.00 23.00 L 326.00 23.00 L 326.00 42.00 L 325.00 42.00 L 325.00 43.00 L 283.00 43.00 L 282.00 85.00 L 261.00 85.00 L 261.00 44.00 L 260.00 44.00 L 260.00 43.00 L 240.00 43.00 L 240.00 44.00 L 239.00 44.00 L 239.00 64.00 L 218.00 64.00 L 218.00 85.00 L 110.00 85.00 L 110.00 126.00 L 89.00 126.00 L 89.00 147.00 L 131.00 147.00 L 131.00 106.00 L 132.00 106.00 L 132.00 105.00 L 226.00 105.00 L 226.00 106.00 L 237.00 105.00 L 237.00 106.00 L 238.00 106.00 L 238.00 105.00 L 239.00 105.00 L 239.00 85.00 L 261.00 85.00 L 261.00 105.00 L 304.00 106.00 L 304.00 64.00 L 433.00 64.00 L 433.00 85.00 L 454.00 85.00 L 454.00 126.00 L 433.00 126.00 L 433.00 147.00 L 475.00 147.00 L 475.00 85.00 L 497.00 85.00 L 497.00 43.00 L 476.00 43.00 L 476.00 63.00 L 475.00 63.00 L 475.00 64.00 L 454.00 64.00 L 454.00 43.00 L 475.00 43.00 L 475.00 23.00 L 474.00 23.00 L 474.00 22.00 L 473.00 22.00 L 473.00 23.00 L 454.00 23.00 L 454.00 43.00 L 411.00 43.00 L 411.00 23.00 L 390.00 23.00 L 390.00 43.00 L 347.00 43.00 L 347.00 23.00 L 346.00 23.00 L 346.00 22.00 Z M 3.00 106.00 L 45.00 106.00 L 45.00 126.00 L 24.00 126.00 L 24.00 147.00 L 45.00 147.00 L 45.00 188.00 L 46.00 188.00 L 46.00 189.00 L 66.00 189.00 L 66.00 188.00 L 67.00 188.00 L 67.00 147.00 L 88.00 147.00 L 88.00 293.00 L 89.00 293.00 L 89.00 299.00 L 88.00 299.00 L 88.00 310.00 L 89.00 310.00 L 89.00 312.00 L 88.00 312.00 L 88.00 313.00 L 110.00 313.00 L 110.00 315.00 L 111.00 315.00 L 111.00 316.00 L 110.00 316.00 L 111.00 333.00 L 113.00 333.00 L 113.00 332.00 L 129.00 332.00 L 129.00 331.00 L 131.00 332.00 L 131.00 316.00 L 120.00 316.00 L 120.00 315.00 L 112.00 316.00 L 112.00 314.00 L 129.00 315.00 L 129.00 314.00 L 135.00 314.00 L 135.00 313.00 L 153.00 313.00 L 153.00 291.00 L 154.00 291.00 L 153.00 251.00 L 132.00 251.00 L 132.00 231.00 L 174.00 231.00 L 174.00 250.00 L 175.00 250.00 L 175.00 251.00 L 197.00 251.00 L 197.00 230.00 L 199.00 230.00 L 199.00 231.00 L 200.00 231.00 L 200.00 230.00 L 218.00 231.00 L 218.00 313.00 L 282.00 314.00 L 282.00 295.00 L 283.00 295.00 L 283.00 294.00 L 282.00 294.00 L 282.00 293.00 L 283.00 293.00 L 283.00 250.00 L 282.00 250.00 L 282.00 234.00 L 283.00 234.00 L 283.00 232.00 L 282.00 232.00 L 282.00 231.00 L 304.00 231.00 L 304.00 252.00 L 310.00 252.00 L 308.00 256.00 L 305.00 256.00 L 305.00 270.00 L 307.00 270.00 L 307.00 271.00 L 376.00 271.00 L 376.00 270.00 L 386.00 270.00 L 386.00 266.00 L 387.00 266.00 L 387.00 263.00 L 388.00 263.00 L 388.00 258.00 L 387.00 258.00 L 386.00 252.00 L 390.00 251.00 L 390.00 230.00 L 304.00 230.00 L 304.00 209.00 L 283.00 209.00 L 283.00 200.00 L 282.00 200.00 L 282.00 199.00 L 283.00 199.00 L 283.00 179.00 L 282.00 179.00 L 283.00 172.00 L 282.00 172.00 L 282.00 168.00 L 304.00 168.00 L 304.00 189.00 L 324.00 189.00 L 324.00 188.00 L 325.00 188.00 L 325.00 209.00 L 326.00 209.00 L 326.00 210.00 L 368.00 210.00 L 368.00 208.00 L 369.00 208.00 L 369.00 200.00 L 368.00 200.00 L 368.00 199.00 L 369.00 199.00 L 369.00 168.00 L 386.00 168.00 L 386.00 170.00 L 387.00 170.00 L 387.00 168.00 L 389.00 168.00 L 389.00 172.00 L 390.00 172.00 L 390.00 173.00 L 389.00 173.00 L 389.00 178.00 L 390.00 178.00 L 390.00 190.00 L 389.00 190.00 L 389.00 193.00 L 390.00 193.00 L 390.00 197.00 L 389.00 197.00 L 389.00 199.00 L 390.00 199.00 L 390.00 210.00 L 411.00 210.00 L 411.00 230.00 L 412.00 230.00 L 412.00 231.00 L 475.00 231.00 L 475.00 251.00 L 433.00 251.00 L 433.00 333.00 L 432.00 333.00 L 432.00 334.00 L 411.00 334.00 L 411.00 355.00 L 347.00 355.00 L 347.00 334.00 L 326.00 334.00 L 326.00 293.00 L 325.00 293.00 L 325.00 292.00 L 308.00 292.00 L 308.00 293.00 L 305.00 292.00 L 305.00 293.00 L 304.00 293.00 L 304.00 334.00 L 282.00 334.00 L 282.00 355.00 L 219.00 355.00 L 219.00 354.00 L 218.00 354.00 L 218.00 334.00 L 197.00 334.00 L 197.00 293.00 L 196.00 293.00 L 196.00 292.00 L 178.00 292.00 L 178.00 293.00 L 175.00 293.00 L 175.00 334.00 L 153.00 334.00 L 153.00 355.00 L 89.00 355.00 L 89.00 334.00 L 67.00 334.00 L 67.00 209.00 L 24.00 209.00 L 24.00 188.00 L 3.00 188.00 L 3.00 107.00 Z M 46.00 126.00 L 66.00 126.00 L 66.00 127.00 L 67.00 127.00 L 67.00 147.00 L 46.00 147.00 L 46.00 127.00 Z M 347.00 126.00 L 347.00 147.00 L 368.00 147.00 L 368.00 126.00 L 348.00 126.00 Z M 390.00 147.00 L 390.00 168.00 L 432.00 168.00 L 432.00 147.00 L 391.00 147.00 Z M 476.00 147.00 L 476.00 168.00 L 497.00 168.00 L 497.00 209.00 L 496.00 209.00 L 496.00 210.00 L 476.00 210.00 L 476.00 230.00 L 497.00 230.00 L 497.00 209.00 L 518.00 209.00 L 518.00 168.00 L 497.00 168.00 L 497.00 147.00 L 477.00 147.00 Z M 455.00 168.00 L 459.00 168.00 L 459.00 169.00 L 475.00 168.00 L 475.00 209.00 L 454.00 209.00 L 454.00 189.00 L 455.00 189.00 L 455.00 188.00 L 473.00 188.00 L 472.00 171.00 L 471.00 171.00 L 471.00 170.00 L 457.00 170.00 L 456.00 173.00 L 455.00 173.00 L 455.00 169.00 Z M 386.00 175.00 L 386.00 176.00 L 387.00 176.00 L 387.00 175.00 Z M 412.00 189.00 L 412.00 209.00 L 432.00 209.00 L 432.00 189.00 L 413.00 189.00 Z M 291.00 196.00 L 291.00 197.00 L 292.00 197.00 L 292.00 196.00 Z M 312.00 252.00 L 313.00 254.00 L 320.00 254.00 L 320.00 256.00 L 323.00 256.00 L 324.00 252.00 L 313.00 252.00 Z M 330.00 252.00 L 341.00 252.00 L 340.00 255.00 L 339.00 255.00 L 339.00 257.00 L 336.00 256.00 L 336.00 254.00 L 331.00 254.00 L 331.00 253.00 L 330.00 253.00 Z M 344.00 252.00 L 344.00 253.00 L 346.00 253.00 L 346.00 252.00 L 345.00 252.00 Z M 347.00 252.00 L 347.00 253.00 L 349.00 254.00 L 349.00 256.00 L 355.00 256.00 L 356.00 252.00 L 348.00 252.00 Z M 360.00 252.00 L 361.00 254.00 L 368.00 254.00 L 368.00 256.00 L 371.00 256.00 L 372.00 252.00 L 361.00 252.00 Z M 378.00 252.00 L 379.00 254.00 L 382.00 253.00 L 382.00 252.00 L 379.00 252.00 Z M 307.00 262.00 L 307.00 264.00 L 308.00 264.00 L 308.00 262.00 Z M 389.00 272.00 L 389.00 289.00 L 390.00 289.00 L 389.00 292.00 L 347.00 293.00 L 347.00 313.00 L 369.00 313.00 L 369.00 314.00 L 412.00 313.00 L 412.00 272.00 L 390.00 272.00 Z M 244.00 315.00 L 276.00 315.00 L 276.00 316.00 L 274.00 316.00 L 274.00 318.00 L 276.00 318.00 L 276.00 323.00 L 277.00 323.00 L 277.00 325.00 L 276.00 325.00 L 276.00 332.00 L 240.00 332.00 L 240.00 331.00 L 241.00 331.00 L 241.00 329.00 L 240.00 329.00 L 240.00 319.00 L 248.00 318.00 L 248.00 320.00 L 252.00 320.00 L 252.00 318.00 L 262.00 318.00 L 262.00 320.00 L 268.00 320.00 L 268.00 318.00 L 270.00 318.00 L 270.00 316.00 L 244.00 316.00 Z M 368.00 315.00 L 368.00 316.00 L 369.00 316.00 L 369.00 315.00 Z M 377.00 315.00 L 384.00 315.00 L 384.00 316.00 L 386.00 316.00 L 386.00 320.00 L 388.00 320.00 L 388.00 317.00 L 389.00 317.00 L 389.00 332.00 L 387.00 332.00 L 387.00 331.00 L 384.00 331.00 L 384.00 332.00 L 369.00 332.00 L 369.00 318.00 L 372.00 317.00 L 372.00 316.00 L 374.00 316.00 L 374.00 317.00 L 379.00 317.00 L 379.00 316.00 L 377.00 316.00 Z M 388.00 315.00 L 388.00 316.00 L 389.00 316.00 L 389.00 315.00 Z M 240.00 316.00 L 240.00 317.00 L 244.00 317.00 L 244.00 316.00 L 270.00 316.00 L 270.00 318.00 L 268.00 318.00 L 268.00 320.00 L 262.00 320.00 L 262.00 318.00 L 252.00 318.00 L 252.00 320.00 L 248.00 320.00 L 248.00 318.00 L 240.00 319.00 L 240.00 329.00 L 241.00 329.00 L 240.00 332.00 L 276.00 332.00 L 276.00 325.00 L 277.00 325.00 L 277.00 323.00 L 276.00 323.00 L 276.00 318.00 L 274.00 318.00 L 274.00 316.00 L 276.00 316.00 L 276.00 315.00 L 244.00 315.00 L 244.00 316.00 L 241.00 316.00 Z M 280.00 319.00 L 281.00 319.00 L 281.00 328.00 L 280.00 328.00 L 280.00 332.00 L 278.00 332.00 L 278.00 324.00 L 280.00 323.00 L 280.00 320.00 Z M 246.00 329.00 L 246.00 330.00 L 260.00 330.00 L 260.00 329.00 L 247.00 329.00 Z M 281.00 332.00 L 281.00 333.00 L 282.00 333.00 L 282.00 332.00 Z" fill="#030407" />
<path d="M 386.00 168.00 L 386.00 170.00 L 387.00 170.00 L 387.00 168.00 Z M 389.00 168.00 L 390.00 168.00 L 390.00 172.00 L 389.00 172.00 L 389.00 169.00 Z M 459.00 168.00 L 459.00 169.00 L 464.00 169.00 L 464.00 168.00 L 460.00 168.00 Z M 457.00 170.00 L 456.00 173.00 L 455.00 173.00 L 455.00 188.00 L 454.00 188.00 L 454.00 189.00 L 455.00 189.00 L 455.00 188.00 L 473.00 188.00 L 472.00 171.00 L 471.00 171.00 L 471.00 170.00 L 458.00 170.00 Z M 389.00 173.00 L 390.00 173.00 L 390.00 174.00 L 389.00 174.00 Z M 386.00 175.00 L 386.00 176.00 L 387.00 176.00 L 387.00 175.00 Z M 389.00 177.00 L 389.00 178.00 L 390.00 178.00 L 390.00 177.00 Z M 45.00 180.00 L 45.00 184.00 L 46.00 184.00 L 46.00 180.00 Z M 45.00 185.00 L 45.00 186.00 L 46.00 186.00 L 46.00 185.00 Z M 412.00 188.00 L 412.00 189.00 L 432.00 189.00 L 432.00 188.00 L 413.00 188.00 Z M 432.00 197.00 L 432.00 208.00 L 433.00 208.00 L 433.00 197.00 Z M 282.00 198.00 L 282.00 199.00 L 283.00 199.00 L 283.00 198.00 Z M 368.00 207.00 L 368.00 208.00 L 369.00 208.00 L 369.00 207.00 Z M 282.00 208.00 L 283.00 208.00 L 283.00 209.00 L 282.00 209.00 Z M 411.00 208.00 L 411.00 209.00 L 412.00 209.00 L 412.00 208.00 Z M 199.00 230.00 L 199.00 231.00 L 200.00 231.00 L 200.00 230.00 Z M 209.00 230.00 L 217.00 230.00 L 217.00 231.00 L 209.00 231.00 Z M 389.00 230.00 L 390.00 230.00 L 390.00 231.00 L 389.00 231.00 Z M 414.00 230.00 L 414.00 231.00 L 415.00 231.00 L 415.00 230.00 Z M 419.00 230.00 L 419.00 231.00 L 424.00 231.00 L 424.00 230.00 L 420.00 230.00 Z M 430.00 230.00 L 430.00 231.00 L 432.00 231.00 L 432.00 230.00 L 431.00 230.00 Z M 174.00 231.00 L 174.00 232.00 L 175.00 232.00 L 175.00 231.00 Z M 282.00 232.00 L 282.00 234.00 L 283.00 234.00 L 283.00 232.00 Z M 174.00 236.00 L 174.00 250.00 L 175.00 250.00 L 175.00 236.00 Z M 304.00 251.00 L 304.00 252.00 L 305.00 252.00 L 305.00 251.00 Z M 308.00 251.00 L 308.00 252.00 L 310.00 252.00 L 309.00 255.00 L 308.00 255.00 L 308.00 256.00 L 305.00 256.00 L 305.00 270.00 L 307.00 270.00 L 307.00 271.00 L 376.00 271.00 L 376.00 270.00 L 386.00 270.00 L 386.00 266.00 L 387.00 266.00 L 387.00 263.00 L 388.00 263.00 L 388.00 258.00 L 387.00 258.00 L 387.00 254.00 L 386.00 254.00 L 386.00 252.00 L 388.00 252.00 L 388.00 251.00 L 309.00 251.00 Z M 312.00 252.00 L 313.00 254.00 L 320.00 254.00 L 320.00 256.00 L 323.00 256.00 L 324.00 252.00 L 313.00 252.00 Z M 330.00 252.00 L 341.00 252.00 L 340.00 255.00 L 339.00 255.00 L 339.00 257.00 L 336.00 256.00 L 336.00 254.00 L 331.00 254.00 L 331.00 253.00 L 330.00 253.00 Z M 344.00 252.00 L 344.00 253.00 L 346.00 253.00 L 346.00 252.00 L 345.00 252.00 Z M 347.00 252.00 L 347.00 253.00 L 349.00 254.00 L 349.00 256.00 L 355.00 256.00 L 356.00 252.00 L 348.00 252.00 Z M 360.00 252.00 L 361.00 254.00 L 368.00 254.00 L 368.00 256.00 L 371.00 256.00 L 372.00 252.00 L 361.00 252.00 Z M 378.00 252.00 L 379.00 254.00 L 382.00 253.00 L 382.00 252.00 L 379.00 252.00 Z M 307.00 262.00 L 307.00 264.00 L 308.00 264.00 L 308.00 262.00 Z M 389.00 291.00 L 388.00 293.00 L 389.00 293.00 L 390.00 291.00 Z M 218.00 293.00 L 218.00 294.00 L 219.00 294.00 L 219.00 293.00 Z M 282.00 294.00 L 282.00 295.00 L 283.00 295.00 L 283.00 294.00 Z M 91.00 295.00 L 92.00 295.00 L 92.00 296.00 L 91.00 296.00 Z M 218.00 295.00 L 218.00 302.00 L 219.00 302.00 L 219.00 295.00 Z M 88.00 299.00 L 89.00 299.00 L 89.00 310.00 L 88.00 310.00 L 88.00 300.00 Z M 88.00 312.00 L 89.00 312.00 L 89.00 313.00 L 88.00 313.00 Z M 108.00 312.00 L 108.00 313.00 L 109.00 313.00 L 109.00 312.00 Z M 110.00 313.00 L 110.00 315.00 L 111.00 315.00 L 111.00 316.00 L 110.00 316.00 L 111.00 333.00 L 113.00 333.00 L 113.00 332.00 L 129.00 332.00 L 129.00 331.00 L 131.00 332.00 L 131.00 316.00 L 120.00 316.00 L 120.00 315.00 L 112.00 316.00 L 112.00 314.00 L 123.00 314.00 L 123.00 315.00 L 135.00 314.00 L 135.00 313.00 L 111.00 313.00 Z M 239.00 313.00 L 239.00 314.00 L 240.00 314.00 L 240.00 313.00 Z M 244.00 313.00 L 244.00 314.00 L 281.00 314.00 L 281.00 313.00 L 245.00 313.00 Z M 375.00 313.00 L 392.00 313.00 L 392.00 314.00 L 375.00 314.00 Z M 244.00 315.00 L 276.00 315.00 L 276.00 316.00 L 274.00 316.00 L 274.00 318.00 L 276.00 318.00 L 276.00 323.00 L 277.00 323.00 L 277.00 325.00 L 276.00 325.00 L 276.00 332.00 L 240.00 332.00 L 240.00 331.00 L 241.00 331.00 L 241.00 329.00 L 240.00 329.00 L 240.00 319.00 L 248.00 318.00 L 248.00 320.00 L 252.00 320.00 L 252.00 318.00 L 262.00 318.00 L 262.00 320.00 L 268.00 320.00 L 268.00 318.00 L 270.00 318.00 L 270.00 316.00 L 244.00 316.00 Z M 244.00 316.00 L 244.00 317.00 L 240.00 317.00 L 240.00 316.00 L 243.00 316.00 Z M 368.00 315.00 L 368.00 316.00 L 369.00 316.00 L 369.00 315.00 Z M 377.00 315.00 L 384.00 315.00 L 384.00 316.00 L 386.00 316.00 L 386.00 320.00 L 388.00 320.00 L 388.00 317.00 L 389.00 317.00 L 389.00 332.00 L 387.00 332.00 L 387.00 331.00 L 384.00 331.00 L 384.00 332.00 L 369.00 332.00 L 369.00 318.00 L 372.00 317.00 L 372.00 316.00 L 374.00 316.00 L 374.00 317.00 L 379.00 317.00 L 379.00 316.00 L 377.00 316.00 Z M 388.00 315.00 L 388.00 316.00 L 389.00 316.00 L 389.00 315.00 Z M 280.00 319.00 L 281.00 319.00 L 281.00 328.00 L 280.00 328.00 L 280.00 332.00 L 278.00 332.00 L 278.00 324.00 L 280.00 323.00 L 280.00 320.00 Z M 246.00 329.00 L 246.00 330.00 L 260.00 330.00 L 260.00 329.00 L 247.00 329.00 Z M 281.00 332.00 L 281.00 333.00 L 282.00 333.00 L 282.00 332.00 Z M 88.00 334.00 L 88.00 335.00 L 89.00 335.00 L 89.00 334.00 Z" fill="#152444" />
<path d="M 282.00 63.00 L 282.00 64.00 L 283.00 64.00 L 283.00 63.00 Z M 280.00 105.00 L 280.00 106.00 L 281.00 106.00 L 281.00 105.00 Z M 454.00 168.00 L 454.00 174.00 L 455.00 174.00 L 455.00 168.00 Z M 282.00 172.00 L 282.00 173.00 L 283.00 173.00 L 283.00 172.00 Z M 454.00 176.00 L 454.00 188.00 L 455.00 188.00 L 455.00 176.00 Z M 282.00 179.00 L 282.00 180.00 L 283.00 180.00 L 283.00 179.00 Z M 45.00 186.00 L 45.00 187.00 L 46.00 187.00 L 46.00 186.00 Z M 48.00 188.00 L 48.00 189.00 L 50.00 189.00 L 50.00 188.00 L 49.00 188.00 Z M 411.00 189.00 L 412.00 189.00 L 412.00 191.00 L 411.00 191.00 L 411.00 190.00 Z M 432.00 190.00 L 433.00 190.00 L 433.00 191.00 L 432.00 191.00 Z M 432.00 192.00 L 432.00 197.00 L 433.00 197.00 L 433.00 192.00 Z M 282.00 200.00 L 282.00 208.00 L 283.00 208.00 L 283.00 200.00 Z M 368.00 201.00 L 368.00 204.00 L 369.00 204.00 L 369.00 201.00 Z M 368.00 205.00 L 368.00 207.00 L 369.00 207.00 L 369.00 205.00 Z M 411.00 207.00 L 411.00 208.00 L 412.00 208.00 L 412.00 207.00 Z M 432.00 208.00 L 432.00 209.00 L 433.00 209.00 L 433.00 208.00 Z M 303.00 230.00 L 303.00 231.00 L 304.00 231.00 L 304.00 230.00 Z M 413.00 230.00 L 413.00 231.00 L 414.00 231.00 L 414.00 230.00 Z M 416.00 230.00 L 416.00 231.00 L 419.00 231.00 L 419.00 230.00 L 417.00 230.00 Z M 424.00 230.00 L 424.00 231.00 L 430.00 231.00 L 430.00 230.00 L 425.00 230.00 Z M 282.00 251.00 L 282.00 253.00 L 283.00 253.00 L 283.00 251.00 Z M 305.00 251.00 L 308.00 251.00 L 308.00 252.00 L 305.00 252.00 Z M 153.00 275.00 L 153.00 288.00 L 154.00 288.00 L 154.00 275.00 Z M 179.00 292.00 L 181.00 292.00 L 181.00 293.00 L 179.00 293.00 Z M 282.00 292.00 L 282.00 293.00 L 283.00 293.00 L 283.00 292.00 Z M 90.00 293.00 L 90.00 295.00 L 89.00 295.00 L 89.00 313.00 L 108.00 313.00 L 108.00 312.00 L 109.00 312.00 L 109.00 293.00 L 91.00 293.00 Z M 221.00 293.00 L 223.00 293.00 L 223.00 294.00 L 221.00 294.00 Z M 235.00 293.00 L 236.00 302.00 L 237.00 302.00 L 237.00 298.00 L 238.00 298.00 L 238.00 296.00 L 236.00 296.00 L 236.00 294.00 L 239.00 294.00 L 239.00 293.00 L 236.00 293.00 Z M 91.00 295.00 L 92.00 295.00 L 92.00 296.00 L 91.00 296.00 Z M 218.00 294.00 L 218.00 295.00 L 219.00 295.00 L 219.00 294.00 Z M 347.00 294.00 L 348.00 294.00 L 348.00 295.00 L 347.00 295.00 Z M 364.00 294.00 L 364.00 295.00 L 361.00 295.00 L 361.00 296.00 L 363.00 296.00 L 364.00 302.00 L 366.00 302.00 L 366.00 294.00 L 365.00 294.00 Z M 221.00 295.00 L 221.00 296.00 L 223.00 296.00 L 223.00 295.00 L 222.00 295.00 Z M 352.00 295.00 L 352.00 296.00 L 356.00 296.00 L 356.00 295.00 L 353.00 295.00 Z M 218.00 302.00 L 219.00 302.00 L 219.00 313.00 L 218.00 313.00 L 218.00 303.00 Z M 349.00 303.00 L 349.00 307.00 L 350.00 307.00 L 350.00 308.00 L 352.00 308.00 L 352.00 306.00 L 350.00 306.00 L 350.00 303.00 Z M 354.00 306.00 L 359.00 306.00 L 360.00 308.00 L 364.00 308.00 L 364.00 310.00 L 359.00 310.00 L 358.00 308.00 L 354.00 308.00 L 354.00 307.00 Z M 220.00 309.00 L 220.00 310.00 L 222.00 310.00 L 222.00 309.00 L 221.00 309.00 Z M 240.00 313.00 L 244.00 313.00 L 244.00 314.00 L 240.00 314.00 Z M 281.00 313.00 L 281.00 314.00 L 282.00 314.00 L 282.00 313.00 Z M 369.00 313.00 L 369.00 314.00 L 375.00 314.00 L 375.00 313.00 L 370.00 313.00 Z" fill="#384662" />
<path d="M 261.00 1.00 L 261.00 2.00 L 325.00 2.00 L 325.00 1.00 L 262.00 1.00 Z M 412.00 1.00 L 454.00 1.00 L 454.00 2.00 L 412.00 2.00 Z M 412.00 2.00 L 412.00 43.00 L 411.00 43.00 L 411.00 23.00 L 390.00 23.00 L 390.00 22.00 L 411.00 22.00 L 411.00 2.00 Z M 282.00 22.00 L 282.00 63.00 L 283.00 63.00 L 283.00 22.00 Z M 325.00 22.00 L 325.00 42.00 L 326.00 42.00 L 326.00 23.00 L 345.00 23.00 L 345.00 22.00 L 326.00 22.00 Z M 346.00 22.00 L 346.00 23.00 L 347.00 23.00 L 347.00 22.00 Z M 454.00 22.00 L 454.00 23.00 L 473.00 23.00 L 473.00 22.00 L 455.00 22.00 Z M 474.00 22.00 L 474.00 23.00 L 475.00 23.00 L 475.00 63.00 L 476.00 63.00 L 476.00 23.00 L 475.00 23.00 L 475.00 22.00 Z M 239.00 43.00 L 239.00 44.00 L 240.00 44.00 L 240.00 43.00 Z M 260.00 43.00 L 260.00 44.00 L 261.00 44.00 L 261.00 43.00 Z M 454.00 63.00 L 454.00 64.00 L 455.00 64.00 L 455.00 63.00 Z M 432.00 64.00 L 432.00 65.00 L 433.00 65.00 L 433.00 64.00 Z M 261.00 84.00 L 261.00 85.00 L 282.00 85.00 L 282.00 84.00 L 262.00 84.00 Z M 475.00 85.00 L 475.00 168.00 L 476.00 168.00 L 476.00 85.00 Z M 3.00 105.00 L 45.00 105.00 L 45.00 106.00 L 3.00 106.00 Z M 132.00 105.00 L 132.00 106.00 L 131.00 106.00 L 131.00 147.00 L 132.00 147.00 L 132.00 106.00 L 226.00 106.00 L 226.00 105.00 L 133.00 105.00 Z M 232.00 105.00 L 232.00 106.00 L 237.00 106.00 L 237.00 105.00 L 233.00 105.00 Z M 238.00 105.00 L 239.00 105.00 L 239.00 106.00 L 238.00 106.00 Z M 262.00 105.00 L 262.00 106.00 L 280.00 106.00 L 280.00 105.00 L 263.00 105.00 Z M 281.00 105.00 L 281.00 106.00 L 282.00 106.00 L 282.00 105.00 Z M 45.00 124.00 L 45.00 127.00 L 46.00 127.00 L 46.00 124.00 Z M 24.00 126.00 L 24.00 127.00 L 25.00 127.00 L 25.00 126.00 Z M 66.00 126.00 L 66.00 127.00 L 67.00 127.00 L 67.00 126.00 Z M 88.00 126.00 L 88.00 148.00 L 89.00 148.00 L 89.00 126.00 Z M 24.00 128.00 L 24.00 132.00 L 25.00 132.00 L 25.00 128.00 Z M 45.00 128.00 L 45.00 145.00 L 46.00 145.00 L 46.00 128.00 Z M 346.00 136.00 L 346.00 145.00 L 347.00 145.00 L 347.00 136.00 Z M 368.00 145.00 L 369.00 145.00 L 369.00 146.00 L 368.00 146.00 Z M 24.00 146.00 L 25.00 146.00 L 25.00 147.00 L 24.00 147.00 Z M 45.00 146.00 L 45.00 148.00 L 46.00 148.00 L 46.00 146.00 Z M 346.00 146.00 L 346.00 147.00 L 347.00 147.00 L 347.00 146.00 Z M 432.00 146.00 L 432.00 168.00 L 433.00 168.00 L 433.00 146.00 Z M 45.00 165.00 L 46.00 165.00 L 46.00 180.00 L 45.00 180.00 L 45.00 166.00 Z M 389.00 167.00 L 389.00 168.00 L 390.00 168.00 L 390.00 167.00 Z M 66.00 168.00 L 66.00 188.00 L 50.00 188.00 L 50.00 189.00 L 66.00 189.00 L 66.00 188.00 L 67.00 188.00 L 67.00 168.00 Z M 368.00 168.00 L 368.00 199.00 L 369.00 199.00 L 369.00 168.00 Z M 518.00 168.00 L 518.00 209.00 L 517.00 209.00 L 517.00 210.00 L 519.00 209.00 L 519.00 168.00 Z M 282.00 173.00 L 282.00 175.00 L 283.00 175.00 L 283.00 173.00 Z M 389.00 174.00 L 389.00 177.00 L 390.00 177.00 L 390.00 174.00 Z M 454.00 174.00 L 454.00 176.00 L 455.00 176.00 L 455.00 174.00 Z M 282.00 180.00 L 283.00 180.00 L 283.00 198.00 L 282.00 198.00 L 282.00 181.00 Z M 45.00 184.00 L 45.00 185.00 L 46.00 185.00 L 46.00 184.00 Z M 45.00 187.00 L 46.00 187.00 L 46.00 188.00 L 45.00 188.00 Z M 46.00 188.00 L 48.00 188.00 L 48.00 189.00 L 46.00 189.00 Z M 20.00 188.00 L 22.00 188.00 L 22.00 189.00 L 20.00 189.00 Z M 23.00 188.00 L 24.00 188.00 L 24.00 189.00 L 23.00 189.00 Z M 304.00 188.00 L 304.00 189.00 L 309.00 189.00 L 309.00 188.00 L 305.00 188.00 Z M 310.00 188.00 L 310.00 189.00 L 321.00 189.00 L 321.00 188.00 L 311.00 188.00 Z M 322.00 188.00 L 324.00 188.00 L 324.00 189.00 L 322.00 189.00 Z M 432.00 188.00 L 432.00 190.00 L 433.00 190.00 L 433.00 188.00 Z M 389.00 190.00 L 390.00 190.00 L 390.00 193.00 L 389.00 193.00 L 389.00 191.00 Z M 475.00 190.00 L 476.00 190.00 L 476.00 191.00 L 475.00 191.00 Z M 411.00 191.00 L 411.00 207.00 L 412.00 207.00 L 412.00 191.00 Z M 432.00 191.00 L 432.00 192.00 L 433.00 192.00 L 433.00 191.00 Z M 291.00 196.00 L 291.00 197.00 L 292.00 197.00 L 292.00 196.00 Z M 475.00 196.00 L 476.00 196.00 L 476.00 202.00 L 475.00 202.00 L 475.00 197.00 Z M 389.00 197.00 L 389.00 199.00 L 390.00 199.00 L 390.00 197.00 Z M 368.00 200.00 L 368.00 201.00 L 369.00 201.00 L 369.00 200.00 Z M 368.00 204.00 L 368.00 205.00 L 369.00 205.00 L 369.00 204.00 Z M 475.00 207.00 L 476.00 207.00 L 476.00 209.00 L 496.00 209.00 L 496.00 210.00 L 476.00 210.00 L 476.00 230.00 L 497.00 230.00 L 497.00 231.00 L 476.00 231.00 L 476.00 251.00 L 475.00 251.00 L 475.00 231.00 L 432.00 231.00 L 432.00 230.00 L 475.00 230.00 L 475.00 208.00 Z M 66.00 209.00 L 66.00 210.00 L 67.00 210.00 L 67.00 209.00 Z M 289.00 209.00 L 289.00 210.00 L 304.00 210.00 L 304.00 209.00 L 290.00 209.00 Z M 326.00 209.00 L 368.00 209.00 L 368.00 210.00 L 326.00 210.00 Z M 390.00 209.00 L 412.00 209.00 L 412.00 210.00 L 390.00 210.00 Z M 497.00 209.00 L 498.00 209.00 L 498.00 210.00 L 497.00 210.00 Z M 411.00 229.00 L 412.00 231.00 L 413.00 231.00 L 412.00 229.00 Z M 132.00 230.00 L 132.00 231.00 L 131.00 231.00 L 131.00 248.00 L 132.00 248.00 L 132.00 231.00 L 174.00 231.00 L 174.00 230.00 L 133.00 230.00 Z M 217.00 230.00 L 217.00 231.00 L 218.00 231.00 L 218.00 230.00 Z M 282.00 230.00 L 282.00 231.00 L 303.00 231.00 L 303.00 230.00 L 283.00 230.00 Z M 304.00 230.00 L 389.00 230.00 L 389.00 231.00 L 304.00 231.00 Z M 415.00 230.00 L 415.00 231.00 L 416.00 231.00 L 416.00 230.00 Z M 196.00 231.00 L 196.00 251.00 L 197.00 251.00 L 197.00 231.00 Z M 174.00 232.00 L 174.00 234.00 L 175.00 234.00 L 175.00 232.00 Z M 131.00 249.00 L 131.00 251.00 L 132.00 251.00 L 132.00 249.00 Z M 282.00 253.00 L 283.00 253.00 L 283.00 292.00 L 282.00 292.00 L 282.00 254.00 Z M 389.00 272.00 L 389.00 289.00 L 390.00 289.00 L 390.00 272.00 Z M 411.00 272.00 L 411.00 313.00 L 412.00 313.00 L 412.00 272.00 Z M 153.00 274.00 L 153.00 275.00 L 154.00 275.00 L 154.00 274.00 Z M 153.00 288.00 L 153.00 291.00 L 154.00 291.00 L 154.00 288.00 Z M 181.00 292.00 L 181.00 293.00 L 196.00 293.00 L 196.00 333.00 L 197.00 333.00 L 197.00 293.00 L 196.00 293.00 L 196.00 292.00 L 182.00 292.00 Z M 305.00 292.00 L 306.00 292.00 L 306.00 293.00 L 305.00 293.00 Z M 308.00 292.00 L 308.00 293.00 L 325.00 293.00 L 325.00 334.00 L 326.00 334.00 L 326.00 293.00 L 325.00 293.00 L 325.00 292.00 L 309.00 292.00 Z M 369.00 292.00 L 370.00 292.00 L 370.00 293.00 L 369.00 293.00 Z M 371.00 292.00 L 371.00 293.00 L 388.00 293.00 L 388.00 292.00 L 372.00 292.00 Z M 89.00 293.00 L 90.00 293.00 L 90.00 295.00 L 89.00 295.00 L 89.00 294.00 Z M 109.00 293.00 L 109.00 312.00 L 110.00 312.00 L 110.00 293.00 Z M 219.00 293.00 L 219.00 313.00 L 239.00 313.00 L 239.00 294.00 L 236.00 294.00 L 236.00 296.00 L 235.00 296.00 L 235.00 293.00 L 223.00 293.00 L 223.00 294.00 L 220.00 293.00 Z M 347.00 293.00 L 368.00 293.00 L 368.00 313.00 L 347.00 313.00 L 347.00 295.00 L 348.00 295.00 L 348.00 294.00 L 347.00 294.00 Z M 364.00 294.00 L 364.00 295.00 L 361.00 295.00 L 361.00 296.00 L 363.00 296.00 L 364.00 302.00 L 366.00 302.00 L 366.00 294.00 L 365.00 294.00 Z M 221.00 295.00 L 221.00 296.00 L 223.00 296.00 L 223.00 295.00 L 222.00 295.00 Z M 352.00 295.00 L 352.00 296.00 L 356.00 296.00 L 356.00 295.00 L 353.00 295.00 Z M 236.00 296.00 L 236.00 302.00 L 237.00 302.00 L 237.00 298.00 L 238.00 298.00 L 238.00 296.00 L 237.00 296.00 Z M 349.00 303.00 L 349.00 307.00 L 350.00 307.00 L 350.00 308.00 L 352.00 308.00 L 352.00 306.00 L 350.00 306.00 L 350.00 303.00 Z M 354.00 306.00 L 359.00 306.00 L 360.00 308.00 L 364.00 308.00 L 364.00 310.00 L 359.00 310.00 L 358.00 308.00 L 354.00 308.00 L 354.00 307.00 Z M 220.00 309.00 L 220.00 310.00 L 222.00 310.00 L 222.00 309.00 L 221.00 309.00 Z M 432.00 333.00 L 432.00 334.00 L 433.00 334.00 L 433.00 333.00 Z M 153.00 334.00 L 153.00 335.00 L 154.00 335.00 L 154.00 334.00 Z M 411.00 334.00 L 411.00 335.00 L 412.00 335.00 L 412.00 334.00 Z M 88.00 335.00 L 88.00 355.00 L 89.00 355.00 L 89.00 335.00 Z M 411.00 337.00 L 411.00 354.00 L 412.00 354.00 L 412.00 337.00 Z M 153.00 353.00 L 153.00 354.00 L 154.00 354.00 L 154.00 353.00 Z M 218.00 354.00 L 218.00 355.00 L 219.00 355.00 L 219.00 354.00 Z" fill="#525864" />
<path d="M 261.00 65.00 L 261.00 80.00 L 262.00 80.00 L 262.00 78.00 L 263.00 78.00 L 263.00 82.00 L 264.00 82.00 L 265.00 73.00 L 266.00 73.00 L 264.00 67.00 L 268.00 66.00 L 268.00 67.00 L 274.00 67.00 L 274.00 68.00 L 275.00 68.00 L 275.00 67.00 L 280.00 67.00 L 280.00 65.00 L 262.00 65.00 Z M 262.00 66.00 L 262.00 68.00 L 263.00 68.00 L 263.00 66.00 Z M 262.00 73.00 L 262.00 76.00 L 263.00 76.00 L 263.00 73.00 Z M 276.00 72.00 L 278.00 72.00 L 278.00 75.00 L 277.00 75.00 L 276.00 73.00 Z M 277.00 75.00 L 277.00 76.00 L 276.00 76.00 L 276.00 75.00 Z M 278.00 75.00 L 278.00 76.00 L 280.00 76.00 L 280.00 78.00 L 278.00 79.00 L 278.00 80.00 L 279.00 80.00 L 279.00 82.00 L 278.00 82.00 L 279.00 84.00 L 280.00 84.00 L 280.00 82.00 L 281.00 82.00 L 281.00 74.00 L 279.00 74.00 L 279.00 75.00 Z M 368.00 127.00 L 368.00 145.00 L 369.00 145.00 L 369.00 127.00 Z M 368.00 146.00 L 368.00 147.00 L 369.00 147.00 L 369.00 146.00 Z M 45.00 158.00 L 45.00 165.00 L 46.00 165.00 L 46.00 158.00 Z M 387.00 167.00 L 387.00 168.00 L 388.00 168.00 L 388.00 167.00 Z M 412.00 168.00 L 412.00 171.00 L 413.00 171.00 L 413.00 168.00 Z M 412.00 172.00 L 412.00 185.00 L 413.00 185.00 L 413.00 172.00 Z M 412.00 186.00 L 414.00 186.00 L 414.00 187.00 L 412.00 187.00 Z M 309.00 188.00 L 309.00 189.00 L 310.00 189.00 L 310.00 188.00 Z M 411.00 188.00 L 412.00 188.00 L 412.00 189.00 L 411.00 189.00 Z M 199.00 189.00 L 202.00 189.00 L 202.00 197.00 L 199.00 197.00 L 199.00 190.00 Z M 209.00 189.00 L 209.00 190.00 L 204.00 190.00 L 204.00 191.00 L 209.00 191.00 L 209.00 192.00 L 210.00 192.00 L 210.00 189.00 Z M 212.00 189.00 L 213.00 192.00 L 214.00 192.00 L 214.00 190.00 L 215.00 190.00 L 216.00 193.00 L 217.00 193.00 L 217.00 191.00 L 216.00 191.00 L 215.00 189.00 L 214.00 189.00 L 214.00 190.00 L 213.00 190.00 L 213.00 189.00 Z M 475.00 189.00 L 475.00 190.00 L 476.00 190.00 L 476.00 189.00 Z M 200.00 191.00 L 200.00 192.00 L 201.00 192.00 L 201.00 191.00 Z M 475.00 191.00 L 476.00 191.00 L 476.00 196.00 L 475.00 196.00 L 475.00 192.00 Z M 215.00 195.00 L 217.00 195.00 L 217.00 197.00 L 215.00 196.00 Z M 212.00 196.00 L 214.00 197.00 L 214.00 198.00 L 212.00 198.00 L 212.00 197.00 Z M 197.00 197.00 L 197.00 230.00 L 198.00 230.00 L 198.00 200.00 L 199.00 200.00 L 198.00 197.00 Z M 216.00 198.00 L 217.00 198.00 L 217.00 199.00 L 216.00 199.00 Z M 216.00 199.00 L 215.00 199.00 L 215.00 200.00 L 216.00 200.00 L 216.00 214.00 L 217.00 214.00 L 217.00 200.00 L 216.00 200.00 Z M 202.00 199.00 L 203.00 199.00 L 203.00 200.00 L 202.00 200.00 Z M 199.00 201.00 L 199.00 202.00 L 200.00 202.00 L 200.00 201.00 Z M 475.00 202.00 L 476.00 202.00 L 476.00 207.00 L 475.00 207.00 L 475.00 203.00 Z M 283.00 209.00 L 283.00 210.00 L 289.00 210.00 L 289.00 209.00 L 284.00 209.00 Z M 412.00 209.00 L 432.00 209.00 L 432.00 210.00 L 412.00 210.00 Z M 412.00 210.00 L 412.00 211.00 L 411.00 211.00 L 411.00 210.00 Z M 411.00 212.00 L 412.00 212.00 L 412.00 228.00 L 411.00 228.00 L 411.00 213.00 Z M 200.00 229.00 L 200.00 230.00 L 203.00 230.00 L 203.00 229.00 L 201.00 229.00 Z M 212.00 229.00 L 217.00 229.00 L 217.00 230.00 L 212.00 230.00 Z M 389.00 250.00 L 389.00 251.00 L 390.00 251.00 L 390.00 250.00 Z M 88.00 292.00 L 89.00 292.00 L 89.00 293.00 L 88.00 293.00 Z M 109.00 312.00 L 109.00 313.00 L 110.00 313.00 L 110.00 312.00 Z M 282.00 334.00 L 282.00 335.00 L 283.00 335.00 L 283.00 334.00 Z M 411.00 336.00 L 411.00 337.00 L 412.00 337.00 L 412.00 336.00 Z" fill="#707994" />
<path d="M 261.00 64.00 L 261.00 65.00 L 280.00 65.00 L 280.00 67.00 L 275.00 67.00 L 275.00 68.00 L 274.00 68.00 L 274.00 67.00 L 268.00 67.00 L 268.00 66.00 L 264.00 67.00 L 266.00 73.00 L 265.00 73.00 L 264.00 82.00 L 263.00 82.00 L 263.00 78.00 L 262.00 78.00 L 261.00 84.00 L 279.00 84.00 L 279.00 83.00 L 278.00 83.00 L 278.00 82.00 L 279.00 82.00 L 278.00 79.00 L 280.00 78.00 L 280.00 76.00 L 278.00 76.00 L 278.00 75.00 L 279.00 75.00 L 279.00 74.00 L 282.00 75.00 L 282.00 64.00 L 262.00 64.00 Z M 262.00 66.00 L 262.00 68.00 L 263.00 68.00 L 263.00 66.00 Z M 276.00 72.00 L 278.00 72.00 L 278.00 75.00 L 277.00 75.00 L 276.00 73.00 Z M 262.00 73.00 L 262.00 76.00 L 263.00 76.00 L 263.00 73.00 Z M 276.00 75.00 L 276.00 76.00 L 277.00 76.00 L 277.00 75.00 L 280.00 76.00 L 280.00 78.00 L 278.00 79.00 L 278.00 80.00 L 279.00 80.00 L 279.00 82.00 L 278.00 82.00 L 279.00 84.00 L 261.00 84.00 L 262.00 78.00 L 263.00 78.00 L 263.00 82.00 L 264.00 82.00 L 265.00 73.00 L 266.00 73.00 L 264.00 67.00 L 266.00 67.00 L 266.00 66.00 L 268.00 66.00 L 268.00 67.00 L 274.00 67.00 L 274.00 68.00 L 275.00 68.00 L 275.00 67.00 L 280.00 67.00 L 280.00 65.00 L 261.00 65.00 L 261.00 64.00 L 282.00 64.00 L 282.00 75.00 L 281.00 75.00 L 281.00 74.00 L 278.00 75.00 L 278.00 72.00 L 276.00 72.00 L 277.00 75.00 Z M 368.00 126.00 L 369.00 126.00 L 369.00 127.00 L 368.00 127.00 Z M 45.00 154.00 L 46.00 154.00 L 46.00 158.00 L 45.00 158.00 L 45.00 155.00 Z M 413.00 168.00 L 413.00 171.00 L 412.00 171.00 L 412.00 172.00 L 413.00 172.00 L 413.00 185.00 L 412.00 185.00 L 412.00 186.00 L 414.00 186.00 L 414.00 187.00 L 432.00 187.00 L 431.00 168.00 L 414.00 168.00 Z M 414.00 169.00 L 414.00 170.00 L 415.00 170.00 L 415.00 169.00 Z M 414.00 171.00 L 415.00 171.00 L 415.00 184.00 L 414.00 184.00 L 414.00 172.00 Z M 475.00 177.00 L 475.00 185.00 L 476.00 185.00 L 476.00 177.00 Z M 415.00 185.00 L 415.00 186.00 L 416.00 186.00 L 416.00 185.00 Z M 212.00 188.00 L 212.00 189.00 L 213.00 189.00 L 213.00 190.00 L 212.00 190.00 L 213.00 194.00 L 211.00 193.00 L 211.00 189.00 L 210.00 189.00 L 210.00 192.00 L 209.00 192.00 L 209.00 191.00 L 204.00 191.00 L 204.00 197.00 L 202.00 196.00 L 202.00 197.00 L 203.00 197.00 L 203.00 200.00 L 201.00 199.00 L 201.00 197.00 L 200.00 197.00 L 200.00 199.00 L 198.00 200.00 L 198.00 230.00 L 200.00 230.00 L 200.00 229.00 L 203.00 229.00 L 203.00 230.00 L 217.00 229.00 L 217.00 214.00 L 216.00 214.00 L 216.00 200.00 L 217.00 200.00 L 217.00 199.00 L 213.00 196.00 L 213.00 194.00 L 214.00 194.00 L 214.00 195.00 L 217.00 195.00 L 217.00 193.00 L 215.00 192.00 L 216.00 189.00 L 214.00 190.00 L 213.00 188.00 Z M 321.00 188.00 L 321.00 189.00 L 322.00 189.00 L 322.00 188.00 Z M 197.00 189.00 L 197.00 191.00 L 198.00 191.00 L 198.00 189.00 Z M 202.00 189.00 L 203.00 189.00 L 203.00 192.00 L 202.00 192.00 L 202.00 190.00 Z M 204.00 189.00 L 209.00 189.00 L 209.00 190.00 L 204.00 190.00 Z M 213.00 190.00 L 213.00 192.00 L 212.00 192.00 L 212.00 190.00 Z M 213.00 190.00 L 214.00 190.00 L 214.00 192.00 L 213.00 192.00 L 213.00 191.00 Z M 200.00 191.00 L 200.00 192.00 L 201.00 192.00 L 201.00 191.00 Z M 325.00 194.00 L 325.00 195.00 L 326.00 195.00 L 326.00 194.00 Z M 212.00 196.00 L 214.00 197.00 L 214.00 198.00 L 212.00 198.00 L 212.00 197.00 Z M 197.00 196.00 L 197.00 197.00 L 198.00 197.00 L 198.00 196.00 Z M 215.00 199.00 L 215.00 200.00 L 216.00 200.00 L 216.00 214.00 L 217.00 214.00 L 217.00 229.00 L 212.00 229.00 L 212.00 230.00 L 203.00 230.00 L 203.00 229.00 L 198.00 230.00 L 198.00 200.00 L 200.00 199.00 L 200.00 197.00 L 201.00 197.00 L 201.00 199.00 L 203.00 200.00 L 204.00 191.00 L 209.00 191.00 L 209.00 192.00 L 210.00 192.00 L 210.00 189.00 L 211.00 189.00 L 211.00 193.00 L 213.00 194.00 L 212.00 198.00 L 215.00 197.00 L 216.00 199.00 Z M 216.00 199.00 L 216.00 200.00 L 215.00 200.00 L 215.00 199.00 Z M 199.00 201.00 L 199.00 202.00 L 200.00 202.00 L 200.00 201.00 Z M 411.00 211.00 L 412.00 211.00 L 412.00 212.00 L 411.00 212.00 Z M 411.00 228.00 L 412.00 228.00 L 412.00 229.00 L 411.00 229.00 Z M 196.00 230.00 L 197.00 230.00 L 197.00 231.00 L 196.00 231.00 Z M 218.00 292.00 L 218.00 293.00 L 219.00 293.00 L 219.00 292.00 Z" fill="#7685a4" />
<path d="M 411.00 1.00 L 411.00 2.00 L 412.00 2.00 L 412.00 1.00 Z M 325.00 2.00 L 325.00 22.00 L 283.00 22.00 L 283.00 23.00 L 325.00 23.00 L 325.00 22.00 L 326.00 22.00 L 326.00 2.00 Z M 454.00 2.00 L 454.00 22.00 L 412.00 22.00 L 412.00 23.00 L 454.00 23.00 L 454.00 22.00 L 455.00 22.00 L 455.00 2.00 Z M 389.00 22.00 L 389.00 43.00 L 390.00 43.00 L 390.00 22.00 Z M 475.00 22.00 L 476.00 22.00 L 476.00 23.00 L 475.00 23.00 Z M 260.00 42.00 L 261.00 44.00 L 282.00 44.00 L 282.00 43.00 L 261.00 43.00 L 261.00 42.00 Z M 347.00 42.00 L 347.00 43.00 L 348.00 43.00 L 348.00 42.00 Z M 454.00 43.00 L 475.00 43.00 L 475.00 44.00 L 455.00 44.00 L 455.00 63.00 L 454.00 63.00 L 454.00 44.00 Z M 455.00 63.00 L 455.00 64.00 L 474.00 64.00 L 474.00 63.00 L 456.00 63.00 Z M 219.00 63.00 L 238.00 63.00 L 238.00 64.00 L 219.00 64.00 Z M 304.00 64.00 L 304.00 65.00 L 325.00 65.00 L 325.00 64.00 L 305.00 64.00 Z M 368.00 64.00 L 389.00 64.00 L 389.00 65.00 L 368.00 65.00 Z M 411.00 64.00 L 411.00 65.00 L 432.00 65.00 L 432.00 85.00 L 433.00 85.00 L 433.00 86.00 L 434.00 86.00 L 434.00 85.00 L 433.00 85.00 L 433.00 65.00 L 432.00 65.00 L 432.00 64.00 L 412.00 64.00 Z M 281.00 75.00 L 282.00 75.00 L 282.00 84.00 L 280.00 84.00 L 280.00 82.00 L 281.00 82.00 L 281.00 76.00 Z M 113.00 84.00 L 113.00 85.00 L 218.00 85.00 L 218.00 84.00 L 114.00 84.00 Z M 239.00 85.00 L 239.00 105.00 L 240.00 105.00 L 240.00 85.00 Z M 260.00 85.00 L 261.00 85.00 L 261.00 86.00 L 260.00 86.00 Z M 435.00 85.00 L 435.00 86.00 L 436.00 86.00 L 436.00 85.00 Z M 453.00 85.00 L 454.00 85.00 L 454.00 86.00 L 453.00 86.00 Z M 109.00 97.00 L 110.00 97.00 L 110.00 111.00 L 109.00 111.00 L 109.00 98.00 Z M 45.00 106.00 L 45.00 124.00 L 46.00 124.00 L 46.00 106.00 Z M 109.00 121.00 L 109.00 126.00 L 110.00 126.00 L 110.00 121.00 Z M 25.00 126.00 L 24.00 128.00 L 25.00 128.00 L 25.00 127.00 L 45.00 127.00 L 45.00 128.00 L 46.00 128.00 L 45.00 126.00 L 26.00 126.00 Z M 346.00 126.00 L 347.00 126.00 L 347.00 132.00 L 346.00 132.00 L 346.00 127.00 Z M 432.00 126.00 L 432.00 146.00 L 433.00 146.00 L 433.00 126.00 Z M 24.00 132.00 L 24.00 146.00 L 25.00 146.00 L 25.00 132.00 Z M 45.00 145.00 L 45.00 146.00 L 46.00 146.00 L 46.00 145.00 Z M 346.00 145.00 L 346.00 146.00 L 347.00 146.00 L 347.00 145.00 Z M 66.00 147.00 L 66.00 168.00 L 65.00 168.00 L 65.00 169.00 L 67.00 168.00 L 67.00 147.00 Z M 89.00 147.00 L 109.00 147.00 L 109.00 148.00 L 89.00 148.00 Z M 89.00 148.00 L 89.00 292.00 L 88.00 292.00 L 88.00 148.00 Z M 347.00 147.00 L 366.00 147.00 L 366.00 148.00 L 347.00 148.00 Z M 389.00 147.00 L 389.00 167.00 L 387.00 166.00 L 387.00 167.00 L 368.00 167.00 L 368.00 168.00 L 387.00 168.00 L 387.00 167.00 L 389.00 168.00 L 389.00 167.00 L 390.00 167.00 L 390.00 147.00 Z M 45.00 148.00 L 46.00 148.00 L 46.00 154.00 L 45.00 154.00 L 45.00 149.00 Z M 173.00 165.00 L 173.00 167.00 L 174.00 167.00 L 174.00 165.00 Z M 283.00 167.00 L 304.00 167.00 L 304.00 168.00 L 283.00 168.00 Z M 497.00 167.00 L 496.00 169.00 L 497.00 169.00 L 497.00 168.00 L 518.00 168.00 L 518.00 167.00 L 498.00 167.00 Z M 411.00 168.00 L 411.00 169.00 L 412.00 169.00 L 412.00 168.00 Z M 431.00 168.00 L 432.00 187.00 L 412.00 187.00 L 412.00 188.00 L 433.00 188.00 L 433.00 168.00 L 432.00 168.00 Z M 475.00 168.00 L 476.00 168.00 L 476.00 177.00 L 475.00 177.00 L 475.00 169.00 Z M 414.00 169.00 L 414.00 170.00 L 415.00 170.00 L 415.00 169.00 Z M 414.00 171.00 L 415.00 171.00 L 415.00 184.00 L 414.00 184.00 L 414.00 172.00 Z M 390.00 172.00 L 390.00 173.00 L 391.00 173.00 L 391.00 172.00 Z M 390.00 179.00 L 390.00 180.00 L 391.00 180.00 L 391.00 179.00 Z M 415.00 185.00 L 415.00 186.00 L 416.00 186.00 L 416.00 185.00 Z M 475.00 185.00 L 476.00 185.00 L 476.00 189.00 L 475.00 189.00 L 475.00 186.00 Z M 51.00 186.00 L 61.00 186.00 L 61.00 187.00 L 51.00 187.00 Z M 323.00 186.00 L 324.00 186.00 L 324.00 187.00 L 323.00 187.00 Z M 3.00 188.00 L 3.00 189.00 L 20.00 189.00 L 20.00 188.00 L 4.00 188.00 Z M 22.00 188.00 L 22.00 189.00 L 23.00 189.00 L 23.00 188.00 Z M 197.00 188.00 L 203.00 188.00 L 203.00 189.00 L 199.00 189.00 L 199.00 197.00 L 200.00 197.00 L 200.00 199.00 L 198.00 199.00 L 198.00 196.00 L 197.00 196.00 L 197.00 198.00 L 196.00 198.00 L 196.00 189.00 L 197.00 189.00 L 197.00 191.00 L 198.00 191.00 L 198.00 189.00 L 197.00 189.00 Z M 203.00 189.00 L 203.00 192.00 L 202.00 192.00 L 202.00 196.00 L 203.00 196.00 L 203.00 197.00 L 201.00 197.00 L 201.00 199.00 L 203.00 199.00 L 203.00 197.00 L 204.00 197.00 L 204.00 189.00 L 205.00 189.00 L 205.00 188.00 L 204.00 188.00 L 204.00 189.00 Z M 208.00 188.00 L 208.00 189.00 L 210.00 189.00 L 210.00 188.00 L 209.00 188.00 Z M 213.00 188.00 L 213.00 189.00 L 215.00 189.00 L 215.00 188.00 L 214.00 188.00 Z M 216.00 188.00 L 218.00 188.00 L 218.00 191.00 L 216.00 191.00 L 216.00 189.00 Z M 325.00 188.00 L 325.00 194.00 L 326.00 194.00 L 326.00 188.00 Z M 132.00 189.00 L 132.00 198.00 L 141.00 198.00 L 141.00 197.00 L 144.00 197.00 L 144.00 196.00 L 147.00 194.00 L 148.00 190.00 L 150.00 190.00 L 149.00 193.00 L 148.00 193.00 L 148.00 195.00 L 147.00 195.00 L 145.00 198.00 L 140.00 199.00 L 140.00 200.00 L 144.00 200.00 L 144.00 204.00 L 139.00 204.00 L 139.00 203.00 L 138.00 203.00 L 138.00 199.00 L 136.00 199.00 L 136.00 200.00 L 135.00 200.00 L 135.00 199.00 L 132.00 199.00 L 132.00 209.00 L 153.00 209.00 L 153.00 189.00 L 144.00 189.00 L 143.00 192.00 L 141.00 192.00 L 143.00 189.00 L 133.00 189.00 Z M 211.00 189.00 L 211.00 191.00 L 212.00 191.00 L 212.00 189.00 Z M 353.00 189.00 L 353.00 190.00 L 354.00 190.00 L 354.00 189.00 Z M 367.00 189.00 L 368.00 189.00 L 368.00 190.00 L 367.00 190.00 Z M 145.00 191.00 L 141.00 196.00 L 142.00 196.00 L 146.00 191.00 Z M 137.00 192.00 L 137.00 193.00 L 135.00 193.00 L 135.00 194.00 L 140.00 194.00 L 140.00 192.00 L 138.00 192.00 Z M 327.00 191.00 L 327.00 192.00 L 328.00 192.00 L 328.00 191.00 Z M 367.00 191.00 L 367.00 192.00 L 368.00 192.00 L 368.00 191.00 Z M 133.00 193.00 L 133.00 194.00 L 134.00 194.00 L 134.00 193.00 Z M 211.00 192.00 L 213.00 192.00 L 213.00 194.00 L 211.00 193.00 Z M 217.00 192.00 L 218.00 192.00 L 218.00 230.00 L 217.00 230.00 L 217.00 198.00 L 215.00 198.00 L 215.00 197.00 L 213.00 196.00 L 213.00 194.00 L 214.00 194.00 L 214.00 195.00 L 217.00 197.00 L 217.00 193.00 Z M 150.00 194.00 L 150.00 196.00 L 149.00 196.00 L 148.00 198.00 L 146.00 198.00 L 146.00 201.00 L 148.00 201.00 L 147.00 204.00 L 145.00 204.00 L 145.00 205.00 L 138.00 205.00 L 138.00 206.00 L 136.00 206.00 L 136.00 208.00 L 150.00 208.00 L 150.00 206.00 L 151.00 206.00 L 151.00 203.00 L 150.00 203.00 L 150.00 201.00 L 151.00 201.00 L 151.00 194.00 Z M 139.00 196.00 L 139.00 197.00 L 140.00 197.00 L 140.00 196.00 Z M 325.00 195.00 L 325.00 209.00 L 326.00 209.00 L 326.00 195.00 Z M 390.00 196.00 L 390.00 197.00 L 391.00 197.00 L 391.00 196.00 Z M 390.00 199.00 L 390.00 200.00 L 391.00 200.00 L 391.00 199.00 Z M 24.00 209.00 L 24.00 210.00 L 66.00 210.00 L 66.00 334.00 L 67.00 334.00 L 67.00 210.00 L 66.00 210.00 L 66.00 209.00 L 25.00 209.00 Z M 282.00 209.00 L 282.00 210.00 L 283.00 210.00 L 283.00 209.00 Z M 432.00 209.00 L 432.00 210.00 L 433.00 210.00 L 433.00 209.00 Z M 454.00 209.00 L 454.00 210.00 L 475.00 210.00 L 475.00 209.00 L 455.00 209.00 Z M 498.00 209.00 L 498.00 210.00 L 517.00 210.00 L 517.00 209.00 L 499.00 209.00 Z M 518.00 209.00 L 519.00 209.00 L 519.00 210.00 L 518.00 210.00 Z M 303.00 210.00 L 304.00 210.00 L 304.00 230.00 L 303.00 230.00 L 303.00 211.00 Z M 131.00 230.00 L 131.00 231.00 L 132.00 231.00 L 132.00 230.00 Z M 174.00 230.00 L 175.00 230.00 L 175.00 231.00 L 174.00 231.00 Z M 389.00 231.00 L 389.00 250.00 L 390.00 250.00 L 390.00 231.00 Z M 218.00 232.00 L 218.00 287.00 L 219.00 287.00 L 219.00 232.00 Z M 131.00 248.00 L 131.00 249.00 L 132.00 249.00 L 132.00 248.00 Z M 175.00 250.00 L 176.00 250.00 L 176.00 251.00 L 175.00 251.00 Z M 304.00 250.00 L 304.00 251.00 L 305.00 251.00 L 305.00 250.00 Z M 132.00 251.00 L 132.00 252.00 L 153.00 252.00 L 153.00 251.00 L 133.00 251.00 Z M 433.00 251.00 L 433.00 252.00 L 475.00 252.00 L 475.00 251.00 L 434.00 251.00 Z M 89.00 292.00 L 89.00 293.00 L 110.00 293.00 L 110.00 292.00 L 90.00 292.00 Z M 219.00 292.00 L 219.00 293.00 L 239.00 293.00 L 239.00 297.00 L 240.00 297.00 L 240.00 293.00 L 239.00 293.00 L 239.00 292.00 L 220.00 292.00 Z M 389.00 292.00 L 389.00 293.00 L 390.00 293.00 L 390.00 292.00 Z M 152.00 293.00 L 152.00 312.00 L 153.00 312.00 L 153.00 293.00 Z M 175.00 294.00 L 176.00 294.00 L 176.00 295.00 L 175.00 295.00 Z M 368.00 295.00 L 368.00 296.00 L 369.00 296.00 L 369.00 295.00 Z M 175.00 296.00 L 175.00 333.00 L 176.00 333.00 L 176.00 296.00 Z M 196.00 333.00 L 197.00 333.00 L 197.00 334.00 L 196.00 334.00 Z M 217.00 334.00 L 217.00 335.00 L 218.00 335.00 L 218.00 334.00 Z M 346.00 334.00 L 347.00 334.00 L 347.00 355.00 L 346.00 355.00 L 346.00 335.00 Z M 153.00 335.00 L 154.00 335.00 L 154.00 353.00 L 153.00 353.00 L 153.00 336.00 Z M 282.00 335.00 L 282.00 355.00 L 283.00 355.00 L 283.00 335.00 Z M 411.00 335.00 L 412.00 335.00 L 412.00 336.00 L 411.00 336.00 Z M 153.00 354.00 L 153.00 355.00 L 154.00 355.00 L 154.00 354.00 Z M 411.00 354.00 L 411.00 355.00 L 412.00 355.00 L 412.00 354.00 Z" fill="#9ba0a8" />
<path d="M 474.00 63.00 L 475.00 63.00 L 475.00 64.00 L 474.00 64.00 Z M 389.00 64.00 L 389.00 65.00 L 390.00 65.00 L 390.00 64.00 Z M 304.00 66.00 L 305.00 66.00 L 305.00 104.00 L 304.00 104.00 L 304.00 67.00 Z M 324.00 67.00 L 324.00 68.00 L 325.00 68.00 L 325.00 67.00 Z M 434.00 85.00 L 435.00 85.00 L 435.00 86.00 L 434.00 86.00 Z M 436.00 85.00 L 436.00 86.00 L 452.00 86.00 L 452.00 85.00 L 437.00 85.00 Z M 453.00 87.00 L 453.00 88.00 L 454.00 88.00 L 454.00 87.00 Z M 410.00 104.00 L 410.00 105.00 L 411.00 105.00 L 411.00 104.00 Z M 433.00 104.00 L 433.00 105.00 L 434.00 105.00 L 434.00 104.00 Z M 347.00 106.00 L 347.00 107.00 L 348.00 107.00 L 348.00 106.00 Z M 388.00 106.00 L 389.00 106.00 L 389.00 108.00 L 388.00 108.00 L 388.00 107.00 Z M 412.00 106.00 L 412.00 107.00 L 415.00 107.00 L 415.00 106.00 L 413.00 106.00 Z M 412.00 108.00 L 413.00 108.00 L 413.00 113.00 L 412.00 113.00 L 412.00 109.00 Z M 324.00 124.00 L 324.00 125.00 L 325.00 125.00 L 325.00 124.00 Z M 237.00 127.00 L 238.00 127.00 L 238.00 128.00 L 237.00 128.00 Z M 195.00 145.00 L 194.00 147.00 L 196.00 147.00 L 196.00 145.00 Z M 412.00 146.00 L 412.00 147.00 L 432.00 147.00 L 432.00 146.00 L 413.00 146.00 Z M 109.00 147.00 L 109.00 148.00 L 110.00 148.00 L 110.00 147.00 Z M 366.00 147.00 L 369.00 147.00 L 369.00 148.00 L 366.00 148.00 Z M 173.00 158.00 L 173.00 159.00 L 174.00 159.00 L 174.00 158.00 Z M 383.00 163.00 L 383.00 164.00 L 384.00 164.00 L 384.00 163.00 Z M 387.00 164.00 L 387.00 166.00 L 388.00 166.00 L 388.00 164.00 Z M 158.00 166.00 L 158.00 167.00 L 160.00 167.00 L 160.00 166.00 L 159.00 166.00 Z M 163.00 166.00 L 164.00 166.00 L 164.00 167.00 L 163.00 167.00 Z M 384.00 166.00 L 385.00 166.00 L 385.00 167.00 L 384.00 167.00 Z M 282.00 167.00 L 282.00 168.00 L 283.00 168.00 L 283.00 167.00 Z M 47.00 168.00 L 47.00 187.00 L 51.00 187.00 L 51.00 186.00 L 61.00 186.00 L 61.00 187.00 L 65.00 187.00 L 65.00 186.00 L 66.00 186.00 L 66.00 185.00 L 65.00 185.00 L 65.00 184.00 L 66.00 184.00 L 66.00 169.00 L 65.00 169.00 L 65.00 168.00 L 48.00 168.00 Z M 197.00 168.00 L 197.00 169.00 L 198.00 169.00 L 198.00 168.00 Z M 411.00 169.00 L 411.00 188.00 L 412.00 188.00 L 412.00 169.00 Z M 199.00 171.00 L 199.00 172.00 L 200.00 172.00 L 200.00 171.00 Z M 197.00 173.00 L 197.00 174.00 L 198.00 174.00 L 198.00 173.00 Z M 280.00 173.00 L 281.00 173.00 L 281.00 174.00 L 280.00 174.00 Z M 390.00 173.00 L 390.00 174.00 L 391.00 174.00 L 391.00 173.00 Z M 213.00 174.00 L 216.00 174.00 L 216.00 175.00 L 213.00 175.00 Z M 239.00 174.00 L 240.00 174.00 L 240.00 175.00 L 239.00 175.00 Z M 399.00 174.00 L 400.00 174.00 L 400.00 175.00 L 399.00 175.00 Z M 199.00 176.00 L 199.00 188.00 L 200.00 188.00 L 200.00 176.00 Z M 209.00 176.00 L 209.00 177.00 L 210.00 177.00 L 210.00 176.00 Z M 249.00 176.00 L 249.00 177.00 L 250.00 177.00 L 250.00 176.00 Z M 280.00 176.00 L 280.00 177.00 L 281.00 177.00 L 281.00 176.00 Z M 402.00 176.00 L 402.00 177.00 L 403.00 177.00 L 403.00 176.00 Z M 213.00 177.00 L 216.00 177.00 L 216.00 178.00 L 213.00 178.00 Z M 239.00 177.00 L 239.00 178.00 L 241.00 178.00 L 241.00 177.00 L 240.00 177.00 Z M 304.00 177.00 L 304.00 180.00 L 305.00 180.00 L 305.00 177.00 Z M 312.00 177.00 L 312.00 178.00 L 318.00 178.00 L 318.00 177.00 L 313.00 177.00 Z M 394.00 177.00 L 394.00 178.00 L 396.00 178.00 L 396.00 177.00 L 395.00 177.00 Z M 323.00 178.00 L 323.00 179.00 L 324.00 179.00 L 324.00 178.00 Z M 210.00 179.00 L 210.00 180.00 L 211.00 180.00 L 211.00 179.00 Z M 250.00 179.00 L 250.00 180.00 L 251.00 180.00 L 251.00 179.00 Z M 307.00 179.00 L 308.00 179.00 L 308.00 180.00 L 307.00 180.00 Z M 307.00 180.00 L 307.00 182.00 L 306.00 182.00 L 306.00 180.00 Z M 214.00 180.00 L 217.00 180.00 L 217.00 181.00 L 214.00 181.00 Z M 315.00 180.00 L 316.00 180.00 L 316.00 181.00 L 315.00 181.00 Z M 324.00 180.00 L 324.00 182.00 L 325.00 182.00 L 325.00 180.00 Z M 390.00 180.00 L 390.00 192.00 L 392.00 192.00 L 392.00 191.00 L 391.00 191.00 L 391.00 180.00 Z M 401.00 180.00 L 402.00 180.00 L 402.00 182.00 L 401.00 182.00 L 401.00 181.00 Z M 278.00 181.00 L 278.00 197.00 L 279.00 197.00 L 279.00 198.00 L 281.00 197.00 L 281.00 184.00 L 280.00 184.00 L 280.00 197.00 L 279.00 197.00 L 279.00 181.00 Z M 322.00 181.00 L 322.00 183.00 L 323.00 183.00 L 323.00 181.00 Z M 215.00 183.00 L 216.00 185.00 L 217.00 185.00 L 216.00 183.00 Z M 405.00 183.00 L 405.00 184.00 L 406.00 184.00 L 406.00 183.00 Z M 210.00 184.00 L 210.00 185.00 L 211.00 185.00 L 211.00 184.00 Z M 307.00 184.00 L 308.00 184.00 L 308.00 185.00 L 307.00 185.00 Z M 323.00 184.00 L 324.00 186.00 L 325.00 186.00 L 324.00 184.00 Z M 213.00 186.00 L 213.00 187.00 L 215.00 187.00 L 215.00 186.00 L 214.00 186.00 Z M 304.00 186.00 L 304.00 187.00 L 305.00 187.00 L 305.00 186.00 Z M 307.00 186.00 L 307.00 187.00 L 308.00 187.00 L 308.00 186.00 Z M 310.00 186.00 L 310.00 187.00 L 311.00 187.00 L 311.00 186.00 Z M 320.00 186.00 L 321.00 186.00 L 321.00 187.00 L 320.00 187.00 Z M 151.00 188.00 L 152.00 188.00 L 152.00 189.00 L 151.00 189.00 Z M 196.00 188.00 L 196.00 189.00 L 197.00 189.00 L 197.00 188.00 Z M 203.00 188.00 L 203.00 189.00 L 204.00 189.00 L 204.00 188.00 Z M 205.00 188.00 L 208.00 188.00 L 208.00 189.00 L 205.00 189.00 Z M 210.00 188.00 L 210.00 189.00 L 212.00 189.00 L 212.00 188.00 L 211.00 188.00 Z M 215.00 188.00 L 215.00 189.00 L 216.00 189.00 L 216.00 188.00 Z M 143.00 189.00 L 141.00 192.00 L 143.00 192.00 L 144.00 189.00 Z M 356.00 189.00 L 356.00 190.00 L 357.00 190.00 L 357.00 189.00 Z M 148.00 190.00 L 148.00 192.00 L 147.00 192.00 L 147.00 194.00 L 144.00 196.00 L 144.00 198.00 L 148.00 195.00 L 148.00 193.00 L 149.00 193.00 L 149.00 191.00 L 150.00 191.00 L 150.00 190.00 L 149.00 190.00 Z M 344.00 190.00 L 344.00 191.00 L 346.00 191.00 L 346.00 190.00 L 345.00 190.00 Z M 367.00 190.00 L 367.00 191.00 L 368.00 191.00 L 368.00 190.00 Z M 410.00 190.00 L 410.00 191.00 L 411.00 191.00 L 411.00 190.00 Z M 145.00 191.00 L 141.00 196.00 L 142.00 196.00 L 146.00 191.00 Z M 211.00 191.00 L 211.00 192.00 L 212.00 192.00 L 212.00 191.00 Z M 217.00 191.00 L 217.00 192.00 L 218.00 192.00 L 218.00 191.00 Z M 356.00 191.00 L 357.00 191.00 L 357.00 192.00 L 356.00 192.00 Z M 137.00 192.00 L 137.00 193.00 L 135.00 193.00 L 135.00 194.00 L 140.00 194.00 L 140.00 192.00 L 138.00 192.00 Z M 367.00 192.00 L 367.00 208.00 L 368.00 208.00 L 368.00 192.00 Z M 133.00 193.00 L 133.00 194.00 L 134.00 194.00 L 134.00 193.00 Z M 150.00 194.00 L 150.00 196.00 L 149.00 196.00 L 148.00 198.00 L 146.00 198.00 L 146.00 201.00 L 148.00 201.00 L 147.00 204.00 L 145.00 204.00 L 145.00 205.00 L 138.00 205.00 L 138.00 206.00 L 136.00 206.00 L 136.00 208.00 L 150.00 208.00 L 150.00 206.00 L 151.00 206.00 L 151.00 203.00 L 150.00 203.00 L 150.00 201.00 L 151.00 201.00 L 151.00 194.00 Z M 390.00 194.00 L 390.00 195.00 L 391.00 195.00 L 391.00 194.00 Z M 139.00 196.00 L 139.00 197.00 L 140.00 197.00 L 140.00 196.00 Z M 261.00 196.00 L 262.00 196.00 L 262.00 197.00 L 261.00 197.00 Z M 141.00 197.00 L 143.00 197.00 L 143.00 199.00 L 141.00 199.00 L 141.00 198.00 Z M 265.00 197.00 L 265.00 198.00 L 267.00 198.00 L 267.00 197.00 L 266.00 197.00 Z M 390.00 197.00 L 390.00 198.00 L 391.00 198.00 L 391.00 197.00 Z M 399.00 197.00 L 400.00 197.00 L 400.00 198.00 L 399.00 198.00 Z M 132.00 198.00 L 140.00 198.00 L 140.00 200.00 L 144.00 200.00 L 144.00 204.00 L 139.00 204.00 L 139.00 203.00 L 138.00 203.00 L 138.00 199.00 L 136.00 199.00 L 136.00 200.00 L 135.00 200.00 L 135.00 199.00 L 132.00 199.00 Z M 196.00 198.00 L 197.00 198.00 L 197.00 230.00 L 196.00 230.00 L 196.00 199.00 Z M 276.00 198.00 L 277.00 198.00 L 277.00 199.00 L 276.00 199.00 Z M 280.00 199.00 L 280.00 200.00 L 281.00 200.00 L 281.00 199.00 Z M 332.00 199.00 L 332.00 200.00 L 334.00 200.00 L 334.00 199.00 L 333.00 199.00 Z M 347.00 199.00 L 347.00 200.00 L 348.00 200.00 L 348.00 199.00 Z M 395.00 199.00 L 396.00 199.00 L 396.00 200.00 L 395.00 200.00 Z M 390.00 200.00 L 390.00 208.00 L 391.00 208.00 L 391.00 200.00 Z M 453.00 208.00 L 454.00 208.00 L 454.00 209.00 L 453.00 209.00 Z M 283.00 229.00 L 284.00 229.00 L 284.00 230.00 L 283.00 230.00 Z M 414.00 229.00 L 414.00 230.00 L 415.00 230.00 L 415.00 229.00 Z M 418.00 229.00 L 418.00 230.00 L 424.00 230.00 L 424.00 229.00 L 419.00 229.00 Z M 430.00 229.00 L 432.00 229.00 L 432.00 230.00 L 430.00 230.00 Z M 218.00 231.00 L 218.00 232.00 L 219.00 232.00 L 219.00 231.00 Z M 222.00 231.00 L 222.00 232.00 L 223.00 232.00 L 223.00 231.00 Z M 237.00 231.00 L 237.00 232.00 L 238.00 232.00 L 238.00 231.00 Z M 304.00 232.00 L 304.00 249.00 L 305.00 249.00 L 305.00 232.00 Z M 305.00 250.00 L 305.00 251.00 L 388.00 251.00 L 388.00 250.00 L 306.00 250.00 Z M 218.00 287.00 L 218.00 292.00 L 219.00 292.00 L 219.00 287.00 Z M 110.00 294.00 L 110.00 296.00 L 111.00 296.00 L 111.00 294.00 Z M 368.00 294.00 L 368.00 295.00 L 369.00 295.00 L 369.00 294.00 Z M 368.00 296.00 L 369.00 296.00 L 369.00 313.00 L 368.00 313.00 L 368.00 297.00 Z M 239.00 297.00 L 239.00 313.00 L 240.00 313.00 L 240.00 297.00 Z" fill="#adb6cb" />
<path d="M 307.00 66.00 L 308.00 66.00 L 308.00 67.00 L 307.00 67.00 Z M 315.00 66.00 L 315.00 67.00 L 317.00 67.00 L 317.00 68.00 L 319.00 68.00 L 319.00 67.00 L 321.00 67.00 L 321.00 66.00 L 316.00 66.00 Z M 324.00 66.00 L 324.00 67.00 L 325.00 67.00 L 325.00 66.00 Z M 369.00 66.00 L 369.00 67.00 L 370.00 67.00 L 370.00 66.00 Z M 369.00 68.00 L 370.00 68.00 L 370.00 79.00 L 371.00 79.00 L 371.00 75.00 L 372.00 75.00 L 372.00 84.00 L 371.00 84.00 L 371.00 80.00 L 370.00 80.00 L 370.00 84.00 L 369.00 84.00 L 369.00 69.00 Z M 421.00 82.00 L 420.00 84.00 L 431.00 84.00 L 431.00 83.00 L 422.00 83.00 L 422.00 82.00 Z M 391.00 85.00 L 391.00 86.00 L 392.00 86.00 L 392.00 85.00 Z M 408.00 86.00 L 408.00 87.00 L 406.00 87.00 L 406.00 88.00 L 409.00 88.00 L 409.00 102.00 L 410.00 102.00 L 410.00 86.00 L 409.00 86.00 Z M 392.00 87.00 L 395.00 87.00 L 395.00 88.00 L 392.00 88.00 Z M 435.00 87.00 L 435.00 88.00 L 436.00 88.00 L 436.00 87.00 Z M 390.00 88.00 L 390.00 99.00 L 391.00 99.00 L 391.00 88.00 Z M 433.00 88.00 L 433.00 96.00 L 434.00 96.00 L 434.00 88.00 Z M 453.00 98.00 L 453.00 103.00 L 454.00 103.00 L 454.00 98.00 Z M 390.00 103.00 L 391.00 103.00 L 391.00 105.00 L 390.00 105.00 L 390.00 104.00 Z M 409.00 104.00 L 410.00 104.00 L 410.00 105.00 L 409.00 105.00 Z M 348.00 106.00 L 388.00 106.00 L 388.00 107.00 L 348.00 107.00 Z M 415.00 106.00 L 415.00 107.00 L 416.00 107.00 L 416.00 106.00 Z M 284.00 107.00 L 284.00 108.00 L 285.00 108.00 L 285.00 107.00 Z M 388.00 108.00 L 388.00 110.00 L 389.00 110.00 L 389.00 108.00 Z M 412.00 113.00 L 413.00 113.00 L 413.00 142.00 L 412.00 142.00 L 412.00 114.00 Z M 365.00 125.00 L 365.00 126.00 L 367.00 126.00 L 367.00 125.00 L 366.00 125.00 Z M 371.00 125.00 L 372.00 125.00 L 372.00 126.00 L 371.00 126.00 Z M 175.00 127.00 L 175.00 128.00 L 176.00 128.00 L 176.00 127.00 Z M 226.00 127.00 L 226.00 128.00 L 228.00 128.00 L 228.00 127.00 L 227.00 127.00 Z M 371.00 127.00 L 371.00 128.00 L 372.00 128.00 L 372.00 127.00 Z M 236.00 130.00 L 236.00 145.00 L 237.00 145.00 L 237.00 147.00 L 238.00 147.00 L 238.00 144.00 L 237.00 144.00 L 237.00 130.00 Z M 194.00 145.00 L 194.00 146.00 L 192.00 146.00 L 192.00 147.00 L 194.00 147.00 L 195.00 145.00 Z M 175.00 146.00 L 175.00 147.00 L 176.00 147.00 L 176.00 146.00 Z M 154.00 148.00 L 154.00 166.00 L 155.00 166.00 L 155.00 148.00 Z M 171.00 148.00 L 171.00 149.00 L 170.00 149.00 L 170.00 152.00 L 168.00 152.00 L 168.00 156.00 L 170.00 156.00 L 170.00 162.00 L 169.00 162.00 L 168.00 164.00 L 160.00 164.00 L 160.00 165.00 L 172.00 165.00 L 172.00 166.00 L 164.00 166.00 L 164.00 167.00 L 172.00 167.00 L 172.00 166.00 L 174.00 165.00 L 174.00 159.00 L 173.00 159.00 L 173.00 158.00 L 174.00 158.00 L 174.00 148.00 L 173.00 148.00 L 173.00 158.00 L 172.00 158.00 L 172.00 148.00 Z M 91.00 149.00 L 91.00 154.00 L 90.00 154.00 L 90.00 156.00 L 92.00 156.00 L 92.00 149.00 Z M 172.00 160.00 L 172.00 165.00 L 160.00 165.00 L 160.00 164.00 L 168.00 164.00 L 168.00 163.00 L 170.00 162.00 L 170.00 156.00 L 168.00 156.00 L 168.00 152.00 L 170.00 152.00 L 170.00 149.00 L 171.00 149.00 L 171.00 148.00 L 172.00 148.00 L 172.00 158.00 L 174.00 159.00 L 174.00 165.00 L 173.00 165.00 L 173.00 160.00 Z M 384.00 160.00 L 385.00 160.00 L 385.00 161.00 L 384.00 161.00 Z M 385.00 161.00 L 385.00 163.00 L 382.00 164.00 L 382.00 167.00 L 383.00 167.00 L 383.00 165.00 L 385.00 166.00 L 385.00 163.00 L 388.00 164.00 L 388.00 163.00 L 387.00 163.00 L 388.00 160.00 L 386.00 161.00 Z M 299.00 161.00 L 303.00 161.00 L 303.00 166.00 L 301.00 166.00 L 301.00 167.00 L 298.00 167.00 L 298.00 166.00 L 299.00 166.00 L 299.00 165.00 L 298.00 165.00 L 298.00 162.00 L 299.00 162.00 Z M 380.00 162.00 L 380.00 163.00 L 381.00 163.00 L 381.00 162.00 Z M 172.00 165.00 L 173.00 165.00 L 173.00 166.00 L 172.00 166.00 Z M 354.00 164.00 L 354.00 165.00 L 365.00 165.00 L 365.00 164.00 L 355.00 164.00 Z M 366.00 164.00 L 375.00 164.00 L 375.00 165.00 L 366.00 165.00 Z M 378.00 164.00 L 379.00 167.00 L 380.00 167.00 L 380.00 164.00 L 379.00 164.00 Z M 280.00 165.00 L 280.00 166.00 L 281.00 166.00 L 281.00 165.00 Z M 156.00 166.00 L 158.00 166.00 L 158.00 167.00 L 156.00 167.00 Z M 160.00 166.00 L 160.00 167.00 L 163.00 167.00 L 163.00 166.00 L 161.00 166.00 Z M 287.00 166.00 L 287.00 167.00 L 289.00 167.00 L 289.00 166.00 L 288.00 166.00 Z M 291.00 166.00 L 291.00 167.00 L 293.00 167.00 L 293.00 166.00 L 292.00 166.00 Z M 294.00 166.00 L 295.00 166.00 L 295.00 167.00 L 294.00 167.00 Z M 352.00 166.00 L 352.00 167.00 L 367.00 167.00 L 367.00 166.00 L 353.00 166.00 Z M 91.00 167.00 L 91.00 170.00 L 92.00 170.00 L 92.00 167.00 Z M 46.00 168.00 L 46.00 182.00 L 47.00 182.00 L 47.00 168.00 Z M 304.00 168.00 L 305.00 168.00 L 305.00 176.00 L 306.00 176.00 L 306.00 177.00 L 304.00 177.00 L 304.00 169.00 Z M 390.00 168.00 L 390.00 169.00 L 391.00 169.00 L 391.00 168.00 Z M 395.00 168.00 L 395.00 169.00 L 406.00 169.00 L 406.00 168.00 L 396.00 168.00 Z M 408.00 168.00 L 408.00 169.00 L 411.00 169.00 L 411.00 168.00 L 409.00 168.00 Z M 197.00 169.00 L 197.00 173.00 L 200.00 173.00 L 198.00 170.00 L 205.00 170.00 L 205.00 169.00 L 198.00 169.00 Z M 306.00 169.00 L 306.00 176.00 L 305.00 176.00 L 305.00 168.00 L 304.00 168.00 L 304.00 177.00 L 306.00 177.00 L 307.00 175.00 L 309.00 175.00 L 311.00 172.00 L 316.00 172.00 L 315.00 170.00 L 313.00 171.00 L 313.00 170.00 L 311.00 170.00 L 311.00 169.00 L 307.00 169.00 Z M 241.00 170.00 L 240.00 172.00 L 244.00 172.00 L 244.00 173.00 L 247.00 174.00 L 247.00 175.00 L 248.00 175.00 L 247.00 172.00 L 245.00 172.00 L 244.00 170.00 L 242.00 170.00 Z M 308.00 171.00 L 310.00 172.00 L 310.00 173.00 L 308.00 173.00 L 308.00 172.00 Z M 408.00 170.00 L 408.00 171.00 L 410.00 171.00 L 410.00 170.00 L 409.00 170.00 Z M 201.00 171.00 L 204.00 171.00 L 204.00 174.00 L 201.00 172.00 Z M 215.00 171.00 L 215.00 172.00 L 217.00 172.00 L 217.00 171.00 L 216.00 171.00 Z M 272.00 171.00 L 272.00 172.00 L 270.00 172.00 L 270.00 173.00 L 272.00 173.00 L 273.00 171.00 Z M 390.00 171.00 L 390.00 172.00 L 391.00 172.00 L 391.00 171.00 Z M 392.00 171.00 L 397.00 171.00 L 397.00 172.00 L 392.00 172.00 Z M 397.00 172.00 L 397.00 173.00 L 398.00 173.00 L 398.00 172.00 Z M 267.00 172.00 L 268.00 172.00 L 268.00 173.00 L 267.00 173.00 Z M 324.00 172.00 L 325.00 172.00 L 325.00 175.00 L 323.00 175.00 L 323.00 173.00 L 324.00 173.00 Z M 279.00 173.00 L 279.00 175.00 L 280.00 175.00 L 280.00 173.00 Z M 399.00 173.00 L 399.00 174.00 L 400.00 174.00 L 400.00 173.00 Z M 197.00 174.00 L 197.00 175.00 L 198.00 175.00 L 198.00 174.00 Z M 240.00 174.00 L 240.00 176.00 L 242.00 176.00 L 241.00 178.00 L 245.00 180.00 L 245.00 188.00 L 246.00 188.00 L 246.00 186.00 L 247.00 186.00 L 247.00 188.00 L 248.00 188.00 L 248.00 186.00 L 249.00 186.00 L 248.00 183.00 L 247.00 183.00 L 247.00 185.00 L 246.00 185.00 L 246.00 179.00 L 248.00 180.00 L 248.00 178.00 L 245.00 176.00 L 246.00 179.00 L 244.00 179.00 L 244.00 178.00 L 243.00 178.00 L 243.00 177.00 L 244.00 177.00 L 244.00 174.00 L 241.00 174.00 Z M 264.00 174.00 L 264.00 175.00 L 263.00 175.00 L 263.00 178.00 L 262.00 178.00 L 262.00 185.00 L 261.00 185.00 L 261.00 196.00 L 262.00 196.00 L 261.00 198.00 L 263.00 198.00 L 263.00 178.00 L 265.00 178.00 L 265.00 188.00 L 267.00 188.00 L 267.00 186.00 L 266.00 186.00 L 265.00 174.00 Z M 271.00 174.00 L 275.00 174.00 L 275.00 175.00 L 271.00 175.00 Z M 313.00 174.00 L 319.00 174.00 L 319.00 175.00 L 313.00 175.00 Z M 313.00 175.00 L 313.00 176.00 L 312.00 176.00 L 312.00 179.00 L 311.00 179.00 L 311.00 177.00 L 310.00 177.00 L 310.00 175.00 L 312.00 175.00 Z M 392.00 174.00 L 392.00 175.00 L 393.00 175.00 L 393.00 176.00 L 392.00 176.00 L 393.00 178.00 L 394.00 178.00 L 394.00 176.00 L 396.00 175.00 L 396.00 174.00 L 393.00 174.00 Z M 199.00 175.00 L 199.00 176.00 L 201.00 176.00 L 201.00 188.00 L 202.00 188.00 L 202.00 175.00 L 200.00 175.00 Z M 209.00 175.00 L 209.00 176.00 L 210.00 176.00 L 210.00 175.00 Z M 212.00 176.00 L 212.00 178.00 L 213.00 178.00 L 213.00 177.00 L 216.00 177.00 L 216.00 176.00 L 213.00 176.00 Z M 310.00 177.00 L 310.00 178.00 L 309.00 178.00 L 309.00 177.00 Z M 321.00 176.00 L 322.00 178.00 L 323.00 178.00 L 322.00 176.00 Z M 401.00 176.00 L 401.00 177.00 L 402.00 177.00 L 402.00 176.00 Z M 209.00 177.00 L 210.00 177.00 L 210.00 178.00 L 209.00 178.00 Z M 210.00 178.00 L 211.00 178.00 L 211.00 179.00 L 210.00 179.00 Z M 249.00 177.00 L 250.00 179.00 L 251.00 179.00 L 250.00 177.00 Z M 271.00 177.00 L 271.00 178.00 L 275.00 178.00 L 275.00 177.00 L 272.00 177.00 Z M 309.00 178.00 L 309.00 179.00 L 307.00 179.00 L 307.00 178.00 L 308.00 178.00 Z M 309.00 179.00 L 309.00 181.00 L 304.00 184.00 L 305.00 187.00 L 308.00 186.00 L 308.00 185.00 L 307.00 185.00 L 307.00 186.00 L 305.00 186.00 L 305.00 185.00 L 306.00 185.00 L 306.00 183.00 L 309.00 184.00 L 309.00 181.00 L 312.00 179.00 L 312.00 176.00 L 313.00 176.00 L 313.00 175.00 L 319.00 175.00 L 319.00 174.00 L 310.00 175.00 L 310.00 177.00 L 307.00 178.00 L 307.00 179.00 L 308.00 179.00 Z M 309.00 179.00 L 311.00 179.00 L 310.00 181.00 L 309.00 181.00 L 309.00 180.00 Z M 319.00 178.00 L 319.00 179.00 L 320.00 179.00 L 320.00 178.00 Z M 390.00 178.00 L 390.00 179.00 L 391.00 179.00 L 391.00 178.00 Z M 400.00 178.00 L 400.00 180.00 L 401.00 180.00 L 401.00 178.00 Z M 268.00 179.00 L 267.00 181.00 L 268.00 181.00 L 269.00 179.00 Z M 324.00 179.00 L 324.00 180.00 L 325.00 180.00 L 325.00 179.00 Z M 210.00 180.00 L 210.00 181.00 L 214.00 181.00 L 214.00 180.00 L 211.00 180.00 Z M 217.00 180.00 L 218.00 180.00 L 218.00 181.00 L 217.00 181.00 Z M 240.00 180.00 L 240.00 182.00 L 242.00 182.00 L 242.00 185.00 L 244.00 185.00 L 244.00 182.00 L 241.00 180.00 Z M 250.00 180.00 L 250.00 188.00 L 252.00 188.00 L 252.00 181.00 L 251.00 181.00 L 251.00 180.00 Z M 278.00 180.00 L 278.00 181.00 L 279.00 181.00 L 279.00 180.00 Z M 304.00 180.00 L 305.00 180.00 L 305.00 182.00 L 304.00 182.00 L 304.00 181.00 Z M 312.00 180.00 L 315.00 180.00 L 315.00 181.00 L 313.00 181.00 L 313.00 182.00 L 312.00 182.00 L 312.00 181.00 Z M 316.00 180.00 L 316.00 181.00 L 317.00 181.00 L 317.00 180.00 Z M 404.00 180.00 L 405.00 180.00 L 405.00 181.00 L 404.00 181.00 Z M 396.00 181.00 L 397.00 187.00 L 398.00 187.00 L 397.00 181.00 Z M 399.00 182.00 L 399.00 183.00 L 400.00 183.00 L 400.00 189.00 L 401.00 189.00 L 401.00 183.00 L 402.00 183.00 L 402.00 189.00 L 403.00 189.00 L 403.00 182.00 L 400.00 182.00 Z M 405.00 182.00 L 405.00 183.00 L 406.00 183.00 L 406.00 182.00 Z M 210.00 183.00 L 215.00 183.00 L 215.00 184.00 L 210.00 184.00 Z M 215.00 184.00 L 216.00 184.00 L 216.00 185.00 L 215.00 185.00 Z M 270.00 183.00 L 270.00 195.00 L 269.00 195.00 L 269.00 199.00 L 266.00 200.00 L 266.00 201.00 L 269.00 201.00 L 269.00 199.00 L 270.00 199.00 L 270.00 197.00 L 271.00 197.00 L 271.00 183.00 Z M 280.00 183.00 L 280.00 184.00 L 281.00 184.00 L 281.00 183.00 Z M 311.00 183.00 L 310.00 185.00 L 311.00 185.00 L 312.00 183.00 Z M 65.00 184.00 L 65.00 185.00 L 66.00 185.00 L 66.00 184.00 Z M 216.00 185.00 L 216.00 186.00 L 217.00 186.00 L 217.00 185.00 Z M 320.00 184.00 L 320.00 185.00 L 321.00 185.00 L 321.00 184.00 Z M 405.00 184.00 L 405.00 189.00 L 406.00 189.00 L 406.00 184.00 Z M 209.00 185.00 L 211.00 185.00 L 210.00 188.00 L 209.00 188.00 L 209.00 186.00 Z M 275.00 185.00 L 275.00 195.00 L 276.00 195.00 L 276.00 185.00 Z M 323.00 185.00 L 324.00 185.00 L 324.00 186.00 L 323.00 186.00 Z M 65.00 186.00 L 66.00 186.00 L 66.00 187.00 L 65.00 187.00 Z M 212.00 186.00 L 212.00 187.00 L 213.00 187.00 L 213.00 186.00 Z M 319.00 186.00 L 319.00 187.00 L 320.00 187.00 L 320.00 186.00 Z M 215.00 187.00 L 215.00 188.00 L 216.00 188.00 L 216.00 187.00 Z M 141.00 188.00 L 141.00 189.00 L 143.00 189.00 L 143.00 188.00 L 142.00 188.00 Z M 145.00 188.00 L 146.00 188.00 L 146.00 189.00 L 145.00 189.00 Z M 147.00 188.00 L 147.00 189.00 L 149.00 189.00 L 149.00 188.00 L 148.00 188.00 Z M 150.00 188.00 L 150.00 189.00 L 151.00 189.00 L 151.00 188.00 Z M 408.00 188.00 L 409.00 188.00 L 409.00 189.00 L 408.00 189.00 Z M 328.00 189.00 L 328.00 191.00 L 329.00 191.00 L 329.00 189.00 Z M 347.00 189.00 L 346.00 191.00 L 347.00 191.00 L 348.00 189.00 Z M 357.00 189.00 L 355.00 192.00 L 356.00 192.00 L 358.00 189.00 Z M 359.00 189.00 L 359.00 190.00 L 360.00 190.00 L 360.00 189.00 Z M 363.00 189.00 L 363.00 190.00 L 366.00 190.00 L 366.00 189.00 L 364.00 189.00 Z M 410.00 189.00 L 410.00 190.00 L 411.00 190.00 L 411.00 189.00 Z M 342.00 190.00 L 344.00 190.00 L 344.00 192.00 L 342.00 191.00 Z M 350.00 190.00 L 349.00 192.00 L 350.00 192.00 L 351.00 190.00 Z M 399.00 190.00 L 399.00 191.00 L 400.00 191.00 L 400.00 190.00 Z M 404.00 190.00 L 404.00 191.00 L 405.00 191.00 L 405.00 190.00 Z M 434.00 190.00 L 434.00 191.00 L 435.00 191.00 L 435.00 190.00 Z M 333.00 191.00 L 333.00 192.00 L 341.00 192.00 L 341.00 191.00 L 334.00 191.00 Z M 352.00 191.00 L 352.00 193.00 L 353.00 193.00 L 353.00 191.00 Z M 401.00 191.00 L 401.00 192.00 L 402.00 192.00 L 402.00 191.00 Z M 131.00 192.00 L 131.00 193.00 L 132.00 193.00 L 132.00 192.00 Z M 266.00 192.00 L 266.00 195.00 L 267.00 195.00 L 267.00 192.00 Z M 410.00 192.00 L 410.00 208.00 L 411.00 208.00 L 411.00 192.00 Z M 390.00 193.00 L 391.00 193.00 L 391.00 194.00 L 390.00 194.00 Z M 391.00 194.00 L 390.00 196.00 L 391.00 196.00 L 391.00 195.00 L 396.00 195.00 L 396.00 194.00 L 392.00 194.00 Z M 334.00 194.00 L 344.00 194.00 L 344.00 195.00 L 334.00 195.00 Z M 354.00 194.00 L 355.00 194.00 L 355.00 196.00 L 354.00 196.00 L 354.00 195.00 Z M 264.00 195.00 L 265.00 195.00 L 265.00 197.00 L 264.00 197.00 L 264.00 196.00 Z M 279.00 196.00 L 279.00 197.00 L 280.00 197.00 L 280.00 196.00 Z M 334.00 196.00 L 334.00 197.00 L 337.00 197.00 L 337.00 198.00 L 345.00 198.00 L 345.00 197.00 L 337.00 197.00 L 337.00 196.00 L 335.00 196.00 Z M 392.00 196.00 L 392.00 197.00 L 395.00 197.00 L 395.00 196.00 L 393.00 196.00 Z M 143.00 197.00 L 143.00 198.00 L 144.00 198.00 L 144.00 197.00 Z M 331.00 197.00 L 332.00 197.00 L 332.00 201.00 L 330.00 200.00 L 330.00 198.00 L 331.00 198.00 Z M 351.00 197.00 L 350.00 199.00 L 351.00 199.00 L 352.00 197.00 Z M 140.00 198.00 L 140.00 199.00 L 141.00 199.00 L 141.00 198.00 Z M 275.00 198.00 L 275.00 199.00 L 276.00 199.00 L 276.00 198.00 Z M 398.00 198.00 L 398.00 199.00 L 399.00 199.00 L 399.00 198.00 Z M 278.00 199.00 L 279.00 199.00 L 279.00 200.00 L 278.00 200.00 Z M 346.00 199.00 L 347.00 199.00 L 347.00 200.00 L 346.00 200.00 Z M 392.00 199.00 L 395.00 199.00 L 395.00 200.00 L 392.00 200.00 Z M 396.00 199.00 L 396.00 200.00 L 397.00 200.00 L 397.00 199.00 Z M 264.00 200.00 L 264.00 201.00 L 265.00 201.00 L 265.00 200.00 Z M 336.00 200.00 L 336.00 201.00 L 342.00 201.00 L 342.00 200.00 L 337.00 200.00 Z M 327.00 202.00 L 327.00 207.00 L 328.00 207.00 L 328.00 202.00 Z M 262.00 208.00 L 262.00 209.00 L 263.00 209.00 L 263.00 208.00 Z M 435.00 208.00 L 435.00 209.00 L 436.00 209.00 L 436.00 208.00 Z M 414.00 211.00 L 415.00 211.00 L 415.00 212.00 L 414.00 212.00 Z M 300.00 218.00 L 300.00 220.00 L 301.00 220.00 L 301.00 218.00 Z M 300.00 222.00 L 300.00 227.00 L 301.00 227.00 L 301.00 222.00 Z M 91.00 225.00 L 91.00 226.00 L 92.00 226.00 L 92.00 225.00 Z M 301.00 229.00 L 301.00 230.00 L 302.00 230.00 L 302.00 229.00 Z M 413.00 229.00 L 414.00 229.00 L 414.00 230.00 L 413.00 230.00 Z M 415.00 229.00 L 415.00 230.00 L 418.00 230.00 L 418.00 229.00 L 416.00 229.00 Z M 424.00 229.00 L 430.00 229.00 L 430.00 230.00 L 424.00 230.00 Z M 219.00 231.00 L 219.00 232.00 L 222.00 232.00 L 222.00 231.00 L 220.00 231.00 Z M 223.00 231.00 L 223.00 232.00 L 234.00 232.00 L 234.00 231.00 L 224.00 231.00 Z M 236.00 236.00 L 237.00 236.00 L 237.00 291.00 L 238.00 291.00 L 238.00 292.00 L 236.00 292.00 L 236.00 237.00 Z M 307.00 248.00 L 307.00 249.00 L 308.00 249.00 L 308.00 248.00 Z M 379.00 248.00 L 379.00 249.00 L 388.00 249.00 L 388.00 248.00 L 380.00 248.00 Z M 91.00 289.00 L 92.00 289.00 L 92.00 292.00 L 91.00 292.00 L 91.00 290.00 Z M 221.00 289.00 L 221.00 292.00 L 223.00 292.00 L 222.00 289.00 Z M 110.00 293.00 L 110.00 294.00 L 111.00 294.00 L 111.00 293.00 Z M 110.00 296.00 L 110.00 312.00 L 111.00 312.00 L 111.00 296.00 Z" fill="#bcc5d6" />
<path d="M 0.00 0.00 L 520.00 0.00 L 520.00 356.00 L 0.00 356.00 L 0.00 1.00 Z M 261.00 1.00 L 261.00 42.00 L 260.00 42.00 L 260.00 43.00 L 239.00 43.00 L 239.00 64.00 L 238.00 64.00 L 238.00 63.00 L 219.00 63.00 L 219.00 64.00 L 218.00 64.00 L 218.00 84.00 L 113.00 84.00 L 113.00 85.00 L 110.00 85.00 L 110.00 97.00 L 109.00 97.00 L 110.00 121.00 L 109.00 121.00 L 109.00 126.00 L 88.00 126.00 L 88.00 147.00 L 67.00 147.00 L 67.00 126.00 L 46.00 126.00 L 46.00 106.00 L 45.00 106.00 L 45.00 105.00 L 3.00 105.00 L 3.00 189.00 L 24.00 189.00 L 24.00 210.00 L 66.00 210.00 L 66.00 334.00 L 88.00 334.00 L 88.00 355.00 L 154.00 355.00 L 154.00 334.00 L 175.00 334.00 L 175.00 333.00 L 176.00 333.00 L 176.00 296.00 L 175.00 296.00 L 176.00 294.00 L 175.00 294.00 L 175.00 293.00 L 178.00 293.00 L 178.00 292.00 L 179.00 292.00 L 179.00 293.00 L 196.00 293.00 L 196.00 334.00 L 217.00 334.00 L 217.00 335.00 L 218.00 335.00 L 218.00 355.00 L 283.00 355.00 L 283.00 334.00 L 304.00 334.00 L 304.00 293.00 L 325.00 293.00 L 325.00 334.00 L 346.00 334.00 L 346.00 355.00 L 412.00 355.00 L 412.00 334.00 L 433.00 334.00 L 433.00 252.00 L 475.00 252.00 L 475.00 251.00 L 476.00 251.00 L 476.00 231.00 L 497.00 231.00 L 497.00 210.00 L 519.00 210.00 L 519.00 168.00 L 518.00 168.00 L 518.00 167.00 L 497.00 167.00 L 497.00 147.00 L 476.00 147.00 L 476.00 85.00 L 497.00 85.00 L 497.00 43.00 L 476.00 43.00 L 476.00 22.00 L 455.00 22.00 L 455.00 2.00 L 454.00 2.00 L 454.00 1.00 L 411.00 1.00 L 411.00 22.00 L 389.00 22.00 L 389.00 43.00 L 348.00 43.00 L 348.00 42.00 L 347.00 42.00 L 347.00 22.00 L 326.00 22.00 L 326.00 2.00 L 325.00 2.00 L 325.00 1.00 L 262.00 1.00 Z M 283.00 23.00 L 283.00 43.00 L 325.00 43.00 L 325.00 23.00 L 284.00 23.00 Z M 412.00 23.00 L 454.00 23.00 L 454.00 43.00 L 412.00 43.00 L 412.00 24.00 Z M 261.00 44.00 L 282.00 44.00 L 282.00 64.00 L 261.00 64.00 L 261.00 45.00 Z M 455.00 44.00 L 455.00 63.00 L 475.00 63.00 L 475.00 44.00 L 456.00 44.00 Z M 325.00 64.00 L 325.00 65.00 L 304.00 65.00 L 304.00 66.00 L 305.00 66.00 L 305.00 104.00 L 304.00 104.00 L 304.00 106.00 L 262.00 106.00 L 262.00 105.00 L 261.00 105.00 L 261.00 86.00 L 260.00 86.00 L 260.00 85.00 L 240.00 85.00 L 240.00 105.00 L 239.00 105.00 L 239.00 106.00 L 132.00 106.00 L 132.00 147.00 L 89.00 148.00 L 89.00 292.00 L 91.00 292.00 L 91.00 289.00 L 92.00 289.00 L 92.00 292.00 L 110.00 292.00 L 110.00 293.00 L 111.00 293.00 L 111.00 312.00 L 110.00 312.00 L 110.00 313.00 L 153.00 313.00 L 153.00 312.00 L 152.00 312.00 L 152.00 293.00 L 153.00 293.00 L 153.00 274.00 L 154.00 274.00 L 154.00 272.00 L 153.00 272.00 L 153.00 268.00 L 154.00 268.00 L 154.00 266.00 L 153.00 266.00 L 153.00 252.00 L 132.00 252.00 L 132.00 251.00 L 131.00 251.00 L 131.00 230.00 L 175.00 230.00 L 175.00 234.00 L 174.00 234.00 L 174.00 236.00 L 175.00 236.00 L 175.00 250.00 L 176.00 250.00 L 176.00 251.00 L 196.00 251.00 L 196.00 188.00 L 199.00 188.00 L 199.00 175.00 L 202.00 175.00 L 202.00 188.00 L 209.00 188.00 L 210.00 183.00 L 216.00 183.00 L 216.00 184.00 L 217.00 184.00 L 217.00 186.00 L 216.00 186.00 L 215.00 184.00 L 211.00 184.00 L 210.00 188.00 L 215.00 188.00 L 215.00 187.00 L 218.00 188.00 L 218.00 231.00 L 234.00 231.00 L 234.00 232.00 L 219.00 232.00 L 219.00 292.00 L 221.00 292.00 L 221.00 289.00 L 223.00 290.00 L 223.00 292.00 L 236.00 292.00 L 236.00 236.00 L 237.00 236.00 L 237.00 291.00 L 240.00 293.00 L 240.00 313.00 L 282.00 313.00 L 282.00 251.00 L 283.00 251.00 L 283.00 250.00 L 282.00 250.00 L 282.00 230.00 L 283.00 230.00 L 283.00 229.00 L 284.00 229.00 L 284.00 230.00 L 301.00 230.00 L 301.00 229.00 L 303.00 230.00 L 303.00 210.00 L 282.00 210.00 L 282.00 167.00 L 287.00 167.00 L 287.00 166.00 L 289.00 166.00 L 289.00 167.00 L 291.00 167.00 L 291.00 166.00 L 293.00 166.00 L 293.00 167.00 L 294.00 167.00 L 294.00 166.00 L 295.00 166.00 L 295.00 167.00 L 298.00 167.00 L 298.00 166.00 L 299.00 166.00 L 299.00 165.00 L 298.00 165.00 L 298.00 162.00 L 299.00 162.00 L 299.00 161.00 L 303.00 161.00 L 303.00 166.00 L 301.00 166.00 L 301.00 167.00 L 304.00 167.00 L 304.00 168.00 L 305.00 168.00 L 305.00 176.00 L 306.00 176.00 L 306.00 177.00 L 305.00 177.00 L 305.00 182.00 L 304.00 182.00 L 304.00 184.00 L 306.00 183.00 L 305.00 186.00 L 307.00 186.00 L 306.00 180.00 L 307.00 180.00 L 307.00 182.00 L 309.00 181.00 L 308.00 187.00 L 304.00 187.00 L 304.00 188.00 L 326.00 188.00 L 326.00 209.00 L 368.00 209.00 L 368.00 208.00 L 367.00 208.00 L 368.00 167.00 L 379.00 167.00 L 378.00 164.00 L 380.00 164.00 L 380.00 167.00 L 382.00 167.00 L 382.00 164.00 L 383.00 164.00 L 383.00 163.00 L 385.00 163.00 L 385.00 167.00 L 387.00 167.00 L 387.00 163.00 L 388.00 163.00 L 388.00 167.00 L 389.00 167.00 L 389.00 147.00 L 432.00 146.00 L 432.00 126.00 L 454.00 126.00 L 454.00 103.00 L 453.00 103.00 L 453.00 98.00 L 454.00 98.00 L 454.00 88.00 L 453.00 88.00 L 453.00 87.00 L 454.00 87.00 L 454.00 86.00 L 453.00 86.00 L 453.00 85.00 L 452.00 85.00 L 452.00 86.00 L 433.00 86.00 L 433.00 85.00 L 432.00 85.00 L 432.00 65.00 L 411.00 65.00 L 411.00 64.00 L 390.00 64.00 L 390.00 65.00 L 326.00 64.00 Z M 307.00 66.00 L 308.00 66.00 L 308.00 67.00 L 307.00 67.00 Z M 315.00 66.00 L 315.00 67.00 L 317.00 67.00 L 317.00 68.00 L 319.00 68.00 L 319.00 67.00 L 321.00 67.00 L 321.00 66.00 L 316.00 66.00 Z M 324.00 66.00 L 324.00 68.00 L 325.00 68.00 L 325.00 66.00 Z M 369.00 66.00 L 369.00 67.00 L 370.00 67.00 L 370.00 66.00 Z M 369.00 68.00 L 370.00 68.00 L 370.00 79.00 L 371.00 79.00 L 371.00 75.00 L 372.00 75.00 L 372.00 84.00 L 371.00 84.00 L 371.00 80.00 L 370.00 80.00 L 370.00 84.00 L 369.00 84.00 L 369.00 69.00 Z M 421.00 82.00 L 420.00 84.00 L 431.00 84.00 L 431.00 83.00 L 422.00 83.00 L 422.00 82.00 Z M 391.00 85.00 L 391.00 86.00 L 392.00 86.00 L 392.00 85.00 Z M 408.00 86.00 L 408.00 87.00 L 406.00 87.00 L 406.00 88.00 L 409.00 88.00 L 409.00 102.00 L 410.00 102.00 L 410.00 86.00 L 409.00 86.00 Z M 392.00 87.00 L 395.00 87.00 L 395.00 88.00 L 392.00 88.00 Z M 435.00 87.00 L 435.00 88.00 L 436.00 88.00 L 436.00 87.00 Z M 390.00 88.00 L 390.00 99.00 L 391.00 99.00 L 391.00 88.00 Z M 433.00 88.00 L 433.00 96.00 L 434.00 96.00 L 434.00 88.00 Z M 390.00 103.00 L 391.00 103.00 L 391.00 105.00 L 390.00 105.00 L 390.00 104.00 Z M 409.00 104.00 L 411.00 104.00 L 411.00 105.00 L 409.00 105.00 Z M 433.00 104.00 L 433.00 105.00 L 434.00 105.00 L 434.00 104.00 Z M 347.00 106.00 L 347.00 107.00 L 388.00 107.00 L 388.00 110.00 L 389.00 110.00 L 389.00 106.00 L 348.00 106.00 Z M 412.00 106.00 L 412.00 107.00 L 416.00 107.00 L 416.00 106.00 L 413.00 106.00 Z M 284.00 107.00 L 284.00 108.00 L 285.00 108.00 L 285.00 107.00 Z M 412.00 108.00 L 413.00 108.00 L 413.00 142.00 L 412.00 142.00 L 412.00 109.00 Z M 324.00 124.00 L 324.00 125.00 L 325.00 125.00 L 325.00 124.00 Z M 365.00 125.00 L 365.00 126.00 L 346.00 126.00 L 346.00 132.00 L 347.00 132.00 L 347.00 136.00 L 346.00 136.00 L 346.00 147.00 L 347.00 147.00 L 347.00 148.00 L 369.00 148.00 L 369.00 126.00 L 366.00 125.00 Z M 371.00 125.00 L 372.00 125.00 L 372.00 126.00 L 371.00 126.00 Z M 175.00 127.00 L 175.00 128.00 L 176.00 128.00 L 176.00 127.00 Z M 226.00 127.00 L 226.00 128.00 L 228.00 128.00 L 228.00 127.00 L 227.00 127.00 Z M 237.00 127.00 L 238.00 127.00 L 238.00 128.00 L 237.00 128.00 Z M 371.00 127.00 L 371.00 128.00 L 372.00 128.00 L 372.00 127.00 Z M 25.00 127.00 L 25.00 147.00 L 45.00 147.00 L 45.00 127.00 L 26.00 127.00 Z M 236.00 130.00 L 236.00 145.00 L 237.00 145.00 L 237.00 147.00 L 238.00 147.00 L 238.00 144.00 L 237.00 144.00 L 237.00 130.00 Z M 194.00 145.00 L 194.00 146.00 L 192.00 146.00 L 192.00 147.00 L 196.00 147.00 L 196.00 145.00 L 195.00 145.00 Z M 175.00 146.00 L 175.00 147.00 L 176.00 147.00 L 176.00 146.00 Z M 46.00 147.00 L 66.00 147.00 L 66.00 168.00 L 46.00 168.00 L 46.00 148.00 Z M 154.00 148.00 L 154.00 166.00 L 155.00 166.00 L 155.00 148.00 Z M 171.00 148.00 L 171.00 149.00 L 170.00 149.00 L 170.00 152.00 L 168.00 152.00 L 168.00 156.00 L 170.00 156.00 L 170.00 162.00 L 169.00 162.00 L 168.00 164.00 L 160.00 164.00 L 160.00 165.00 L 172.00 165.00 L 172.00 166.00 L 156.00 166.00 L 156.00 167.00 L 172.00 167.00 L 172.00 166.00 L 174.00 167.00 L 174.00 148.00 L 173.00 148.00 L 173.00 158.00 L 172.00 158.00 L 172.00 148.00 Z M 433.00 147.00 L 433.00 210.00 L 412.00 210.00 L 412.00 230.00 L 413.00 230.00 L 413.00 229.00 L 475.00 230.00 L 475.00 210.00 L 454.00 210.00 L 454.00 209.00 L 453.00 209.00 L 453.00 208.00 L 454.00 208.00 L 454.00 168.00 L 475.00 168.00 L 475.00 147.00 L 434.00 147.00 Z M 91.00 149.00 L 91.00 154.00 L 90.00 154.00 L 90.00 156.00 L 92.00 156.00 L 92.00 149.00 Z M 384.00 160.00 L 385.00 160.00 L 385.00 161.00 L 384.00 161.00 Z M 387.00 160.00 L 388.00 160.00 L 388.00 161.00 L 387.00 161.00 Z M 172.00 160.00 L 172.00 165.00 L 160.00 165.00 L 160.00 164.00 L 168.00 164.00 L 168.00 163.00 L 170.00 162.00 L 170.00 156.00 L 168.00 156.00 L 168.00 152.00 L 170.00 152.00 L 170.00 149.00 L 171.00 149.00 L 171.00 148.00 L 172.00 148.00 L 172.00 158.00 L 173.00 158.00 L 173.00 148.00 L 174.00 148.00 L 174.00 167.00 L 172.00 166.00 L 172.00 165.00 L 173.00 165.00 L 173.00 160.00 Z M 385.00 161.00 L 385.00 163.00 L 382.00 164.00 L 382.00 167.00 L 380.00 167.00 L 380.00 164.00 L 378.00 164.00 L 379.00 167.00 L 368.00 167.00 L 368.00 189.00 L 367.00 189.00 L 367.00 208.00 L 368.00 208.00 L 368.00 209.00 L 326.00 209.00 L 326.00 188.00 L 304.00 188.00 L 304.00 187.00 L 308.00 187.00 L 309.00 181.00 L 310.00 181.00 L 312.00 178.00 L 318.00 178.00 L 318.00 177.00 L 312.00 177.00 L 312.00 176.00 L 313.00 176.00 L 313.00 175.00 L 319.00 175.00 L 319.00 174.00 L 310.00 175.00 L 310.00 177.00 L 307.00 178.00 L 306.00 183.00 L 304.00 184.00 L 304.00 182.00 L 305.00 182.00 L 305.00 177.00 L 306.00 177.00 L 307.00 175.00 L 309.00 175.00 L 311.00 172.00 L 316.00 172.00 L 315.00 170.00 L 313.00 171.00 L 313.00 170.00 L 311.00 170.00 L 311.00 169.00 L 306.00 169.00 L 306.00 176.00 L 305.00 176.00 L 305.00 168.00 L 304.00 168.00 L 304.00 167.00 L 301.00 167.00 L 301.00 166.00 L 303.00 166.00 L 303.00 161.00 L 299.00 161.00 L 299.00 162.00 L 298.00 162.00 L 298.00 165.00 L 299.00 165.00 L 298.00 167.00 L 295.00 167.00 L 295.00 166.00 L 294.00 166.00 L 294.00 167.00 L 293.00 167.00 L 293.00 166.00 L 291.00 166.00 L 291.00 167.00 L 289.00 167.00 L 289.00 166.00 L 287.00 166.00 L 287.00 167.00 L 282.00 167.00 L 282.00 210.00 L 303.00 210.00 L 303.00 230.00 L 302.00 230.00 L 302.00 229.00 L 301.00 229.00 L 301.00 230.00 L 284.00 230.00 L 284.00 229.00 L 282.00 230.00 L 282.00 250.00 L 283.00 250.00 L 283.00 251.00 L 282.00 251.00 L 282.00 313.00 L 240.00 313.00 L 240.00 293.00 L 237.00 291.00 L 237.00 236.00 L 236.00 236.00 L 236.00 292.00 L 223.00 292.00 L 222.00 289.00 L 221.00 289.00 L 221.00 292.00 L 219.00 292.00 L 219.00 232.00 L 234.00 232.00 L 234.00 231.00 L 218.00 231.00 L 218.00 188.00 L 216.00 188.00 L 215.00 186.00 L 212.00 186.00 L 212.00 187.00 L 215.00 187.00 L 215.00 188.00 L 210.00 188.00 L 211.00 184.00 L 215.00 184.00 L 216.00 186.00 L 217.00 186.00 L 217.00 184.00 L 216.00 184.00 L 216.00 183.00 L 210.00 183.00 L 209.00 188.00 L 202.00 188.00 L 202.00 175.00 L 199.00 175.00 L 199.00 188.00 L 196.00 188.00 L 196.00 251.00 L 176.00 251.00 L 176.00 250.00 L 175.00 250.00 L 175.00 236.00 L 174.00 236.00 L 175.00 230.00 L 131.00 230.00 L 131.00 251.00 L 132.00 251.00 L 132.00 252.00 L 153.00 252.00 L 153.00 266.00 L 154.00 266.00 L 154.00 268.00 L 153.00 268.00 L 153.00 272.00 L 154.00 272.00 L 154.00 274.00 L 153.00 274.00 L 153.00 293.00 L 152.00 293.00 L 152.00 312.00 L 153.00 312.00 L 153.00 313.00 L 110.00 313.00 L 110.00 312.00 L 111.00 312.00 L 111.00 293.00 L 110.00 293.00 L 110.00 292.00 L 92.00 292.00 L 92.00 289.00 L 91.00 289.00 L 91.00 292.00 L 89.00 292.00 L 89.00 148.00 L 132.00 147.00 L 132.00 106.00 L 239.00 106.00 L 239.00 105.00 L 240.00 105.00 L 240.00 85.00 L 260.00 85.00 L 260.00 86.00 L 261.00 86.00 L 261.00 105.00 L 262.00 105.00 L 262.00 106.00 L 304.00 106.00 L 304.00 104.00 L 305.00 104.00 L 305.00 66.00 L 304.00 66.00 L 304.00 65.00 L 325.00 65.00 L 325.00 64.00 L 368.00 64.00 L 368.00 65.00 L 411.00 64.00 L 411.00 65.00 L 432.00 65.00 L 432.00 85.00 L 433.00 85.00 L 433.00 86.00 L 452.00 86.00 L 452.00 85.00 L 454.00 86.00 L 454.00 87.00 L 453.00 87.00 L 453.00 88.00 L 454.00 88.00 L 454.00 98.00 L 453.00 98.00 L 453.00 103.00 L 454.00 103.00 L 454.00 126.00 L 432.00 126.00 L 432.00 146.00 L 389.00 147.00 L 389.00 167.00 L 388.00 167.00 L 388.00 163.00 L 387.00 163.00 L 388.00 160.00 L 386.00 161.00 Z M 380.00 162.00 L 380.00 163.00 L 381.00 163.00 L 381.00 162.00 Z M 385.00 163.00 L 387.00 163.00 L 387.00 167.00 L 385.00 167.00 L 385.00 164.00 Z M 354.00 164.00 L 354.00 165.00 L 365.00 165.00 L 365.00 164.00 L 355.00 164.00 Z M 366.00 164.00 L 375.00 164.00 L 375.00 165.00 L 366.00 165.00 Z M 280.00 165.00 L 280.00 166.00 L 281.00 166.00 L 281.00 165.00 Z M 352.00 166.00 L 352.00 167.00 L 367.00 167.00 L 367.00 166.00 L 353.00 166.00 Z M 383.00 165.00 L 383.00 167.00 L 384.00 167.00 L 384.00 165.00 Z M 91.00 167.00 L 91.00 170.00 L 92.00 170.00 L 92.00 167.00 Z M 197.00 168.00 L 197.00 175.00 L 198.00 175.00 L 198.00 173.00 L 200.00 173.00 L 200.00 171.00 L 198.00 171.00 L 198.00 170.00 L 205.00 170.00 L 205.00 169.00 L 198.00 169.00 L 198.00 168.00 Z M 391.00 168.00 L 395.00 168.00 L 395.00 169.00 L 406.00 169.00 L 406.00 168.00 L 408.00 168.00 L 408.00 169.00 L 411.00 169.00 L 411.00 189.00 L 410.00 189.00 L 410.00 191.00 L 411.00 191.00 L 411.00 192.00 L 410.00 192.00 L 410.00 208.00 L 411.00 208.00 L 411.00 209.00 L 390.00 209.00 L 390.00 208.00 L 391.00 208.00 L 391.00 199.00 L 390.00 199.00 L 390.00 198.00 L 391.00 198.00 L 391.00 195.00 L 396.00 195.00 L 396.00 194.00 L 391.00 194.00 L 391.00 193.00 L 390.00 193.00 L 390.00 192.00 L 392.00 192.00 L 392.00 191.00 L 391.00 191.00 L 391.00 178.00 L 390.00 178.00 L 390.00 174.00 L 391.00 174.00 L 390.00 169.00 L 391.00 169.00 Z M 476.00 168.00 L 496.00 168.00 L 496.00 169.00 L 497.00 169.00 L 497.00 209.00 L 476.00 209.00 L 476.00 169.00 Z M 241.00 170.00 L 240.00 172.00 L 244.00 172.00 L 244.00 173.00 L 247.00 174.00 L 247.00 175.00 L 248.00 175.00 L 247.00 172.00 L 245.00 172.00 L 244.00 170.00 L 242.00 170.00 Z M 408.00 170.00 L 408.00 171.00 L 410.00 171.00 L 410.00 170.00 L 409.00 170.00 Z M 201.00 171.00 L 204.00 171.00 L 204.00 174.00 L 201.00 172.00 Z M 215.00 171.00 L 215.00 172.00 L 217.00 172.00 L 217.00 171.00 L 216.00 171.00 Z M 272.00 171.00 L 272.00 172.00 L 270.00 172.00 L 270.00 173.00 L 272.00 173.00 L 273.00 171.00 Z M 392.00 171.00 L 397.00 171.00 L 397.00 172.00 L 392.00 172.00 Z M 267.00 172.00 L 268.00 172.00 L 268.00 173.00 L 267.00 173.00 Z M 308.00 171.00 L 310.00 172.00 L 310.00 173.00 L 308.00 173.00 L 308.00 172.00 Z M 324.00 172.00 L 325.00 172.00 L 325.00 175.00 L 323.00 175.00 L 323.00 173.00 L 324.00 173.00 Z M 397.00 172.00 L 397.00 173.00 L 398.00 173.00 L 398.00 172.00 Z M 279.00 173.00 L 279.00 175.00 L 281.00 174.00 L 281.00 173.00 L 280.00 173.00 Z M 399.00 173.00 L 399.00 175.00 L 400.00 175.00 L 400.00 173.00 Z M 213.00 174.00 L 216.00 174.00 L 216.00 175.00 L 213.00 175.00 Z M 239.00 174.00 L 244.00 174.00 L 244.00 177.00 L 243.00 177.00 L 244.00 179.00 L 239.00 178.00 L 239.00 177.00 L 242.00 177.00 L 242.00 176.00 L 239.00 175.00 Z M 264.00 174.00 L 264.00 175.00 L 263.00 175.00 L 263.00 178.00 L 262.00 178.00 L 262.00 185.00 L 261.00 185.00 L 261.00 198.00 L 263.00 198.00 L 263.00 178.00 L 265.00 178.00 L 265.00 188.00 L 267.00 188.00 L 267.00 186.00 L 266.00 186.00 L 265.00 174.00 Z M 271.00 174.00 L 275.00 174.00 L 275.00 175.00 L 271.00 175.00 Z M 392.00 174.00 L 392.00 175.00 L 393.00 175.00 L 393.00 176.00 L 392.00 176.00 L 393.00 178.00 L 396.00 178.00 L 396.00 177.00 L 394.00 177.00 L 396.00 174.00 L 393.00 174.00 Z M 209.00 175.00 L 210.00 181.00 L 218.00 181.00 L 218.00 180.00 L 211.00 180.00 L 210.00 175.00 Z M 212.00 176.00 L 212.00 178.00 L 216.00 178.00 L 216.00 176.00 L 213.00 176.00 Z M 245.00 176.00 L 246.00 179.00 L 244.00 179.00 L 244.00 178.00 L 243.00 178.00 L 243.00 177.00 L 244.00 177.00 L 244.00 174.00 L 239.00 174.00 L 240.00 176.00 L 242.00 176.00 L 242.00 177.00 L 239.00 177.00 L 239.00 178.00 L 242.00 178.00 L 242.00 179.00 L 245.00 180.00 L 245.00 188.00 L 246.00 188.00 L 246.00 186.00 L 247.00 186.00 L 247.00 188.00 L 248.00 188.00 L 248.00 186.00 L 249.00 186.00 L 248.00 183.00 L 247.00 183.00 L 247.00 185.00 L 246.00 185.00 L 246.00 179.00 L 248.00 180.00 L 248.00 178.00 L 247.00 178.00 L 246.00 176.00 Z M 249.00 176.00 L 249.00 178.00 L 250.00 178.00 L 250.00 188.00 L 252.00 188.00 L 252.00 181.00 L 251.00 181.00 L 250.00 176.00 Z M 280.00 176.00 L 280.00 177.00 L 281.00 177.00 L 281.00 176.00 Z M 321.00 176.00 L 321.00 177.00 L 324.00 179.00 L 324.00 182.00 L 325.00 182.00 L 325.00 179.00 L 324.00 179.00 L 322.00 176.00 Z M 401.00 176.00 L 401.00 177.00 L 403.00 177.00 L 403.00 176.00 L 402.00 176.00 Z M 200.00 176.00 L 201.00 176.00 L 201.00 188.00 L 200.00 188.00 L 200.00 177.00 Z M 271.00 177.00 L 271.00 178.00 L 275.00 178.00 L 275.00 177.00 L 272.00 177.00 Z M 310.00 177.00 L 310.00 178.00 L 309.00 178.00 L 309.00 177.00 Z M 310.00 177.00 L 311.00 177.00 L 311.00 179.00 L 309.00 179.00 L 309.00 178.00 L 310.00 178.00 Z M 319.00 178.00 L 319.00 179.00 L 320.00 179.00 L 320.00 178.00 Z M 400.00 178.00 L 400.00 180.00 L 401.00 180.00 L 401.00 182.00 L 399.00 182.00 L 399.00 183.00 L 400.00 183.00 L 400.00 189.00 L 401.00 189.00 L 401.00 183.00 L 402.00 183.00 L 402.00 189.00 L 403.00 189.00 L 403.00 182.00 L 402.00 182.00 L 401.00 178.00 Z M 268.00 179.00 L 267.00 181.00 L 268.00 181.00 L 269.00 179.00 Z M 309.00 179.00 L 307.00 180.00 L 307.00 178.00 L 309.00 178.00 Z M 309.00 179.00 L 308.00 182.00 L 307.00 182.00 L 308.00 179.00 Z M 240.00 180.00 L 240.00 182.00 L 242.00 182.00 L 242.00 185.00 L 244.00 185.00 L 244.00 182.00 L 241.00 180.00 Z M 278.00 180.00 L 278.00 197.00 L 279.00 197.00 L 279.00 198.00 L 281.00 197.00 L 281.00 183.00 L 280.00 183.00 L 280.00 196.00 L 279.00 196.00 L 279.00 180.00 Z M 312.00 180.00 L 317.00 180.00 L 317.00 181.00 L 313.00 181.00 L 313.00 182.00 L 312.00 182.00 L 312.00 181.00 Z M 404.00 180.00 L 405.00 180.00 L 405.00 181.00 L 404.00 181.00 Z M 322.00 181.00 L 322.00 183.00 L 323.00 183.00 L 323.00 181.00 Z M 396.00 181.00 L 397.00 187.00 L 398.00 187.00 L 397.00 181.00 Z M 405.00 182.00 L 405.00 189.00 L 406.00 189.00 L 406.00 182.00 Z M 46.00 182.00 L 46.00 188.00 L 66.00 188.00 L 66.00 187.00 L 47.00 187.00 L 47.00 182.00 Z M 270.00 183.00 L 270.00 195.00 L 269.00 195.00 L 269.00 199.00 L 266.00 200.00 L 266.00 201.00 L 269.00 201.00 L 269.00 199.00 L 270.00 199.00 L 270.00 197.00 L 271.00 197.00 L 271.00 183.00 Z M 311.00 183.00 L 310.00 185.00 L 311.00 185.00 L 312.00 183.00 Z M 320.00 184.00 L 320.00 185.00 L 321.00 185.00 L 321.00 184.00 Z M 323.00 184.00 L 323.00 187.00 L 325.00 186.00 L 324.00 184.00 Z M 275.00 185.00 L 275.00 195.00 L 276.00 195.00 L 276.00 185.00 Z M 310.00 186.00 L 310.00 187.00 L 311.00 187.00 L 311.00 186.00 Z M 319.00 186.00 L 319.00 187.00 L 321.00 187.00 L 321.00 186.00 L 320.00 186.00 Z M 141.00 188.00 L 141.00 189.00 L 132.00 189.00 L 132.00 192.00 L 131.00 192.00 L 131.00 193.00 L 132.00 193.00 L 132.00 209.00 L 153.00 209.00 L 153.00 189.00 L 152.00 189.00 L 152.00 188.00 L 150.00 188.00 L 150.00 189.00 L 149.00 189.00 L 149.00 188.00 L 147.00 188.00 L 147.00 189.00 L 146.00 189.00 L 146.00 188.00 L 145.00 188.00 L 145.00 189.00 L 142.00 188.00 Z M 408.00 188.00 L 409.00 188.00 L 409.00 189.00 L 408.00 189.00 Z M 328.00 189.00 L 327.00 192.00 L 329.00 191.00 L 329.00 189.00 Z M 347.00 189.00 L 347.00 190.00 L 342.00 190.00 L 343.00 192.00 L 344.00 192.00 L 344.00 191.00 L 347.00 191.00 L 348.00 189.00 Z M 353.00 189.00 L 353.00 190.00 L 354.00 190.00 L 354.00 189.00 Z M 356.00 189.00 L 355.00 192.00 L 357.00 192.00 L 357.00 190.00 L 358.00 190.00 L 358.00 189.00 L 357.00 189.00 Z M 359.00 189.00 L 359.00 190.00 L 360.00 190.00 L 360.00 189.00 Z M 363.00 189.00 L 363.00 190.00 L 366.00 190.00 L 366.00 189.00 L 364.00 189.00 Z M 350.00 190.00 L 349.00 192.00 L 350.00 192.00 L 351.00 190.00 Z M 399.00 190.00 L 399.00 191.00 L 400.00 191.00 L 400.00 190.00 Z M 404.00 190.00 L 404.00 191.00 L 405.00 191.00 L 405.00 190.00 Z M 434.00 190.00 L 434.00 191.00 L 435.00 191.00 L 435.00 190.00 Z M 333.00 191.00 L 333.00 192.00 L 341.00 192.00 L 341.00 191.00 L 334.00 191.00 Z M 352.00 191.00 L 352.00 193.00 L 353.00 193.00 L 353.00 191.00 Z M 401.00 191.00 L 401.00 192.00 L 402.00 192.00 L 402.00 191.00 Z M 266.00 192.00 L 266.00 195.00 L 267.00 195.00 L 267.00 192.00 Z M 334.00 194.00 L 344.00 194.00 L 344.00 195.00 L 334.00 195.00 Z M 354.00 194.00 L 355.00 194.00 L 355.00 196.00 L 354.00 196.00 L 354.00 195.00 Z M 264.00 195.00 L 265.00 195.00 L 265.00 197.00 L 264.00 197.00 L 264.00 196.00 Z M 334.00 196.00 L 334.00 197.00 L 337.00 197.00 L 337.00 198.00 L 345.00 198.00 L 345.00 197.00 L 337.00 197.00 L 337.00 196.00 L 335.00 196.00 Z M 392.00 196.00 L 392.00 197.00 L 395.00 197.00 L 395.00 196.00 L 393.00 196.00 Z M 265.00 197.00 L 265.00 198.00 L 267.00 198.00 L 267.00 197.00 L 266.00 197.00 Z M 331.00 197.00 L 332.00 197.00 L 332.00 199.00 L 334.00 199.00 L 334.00 200.00 L 331.00 201.00 L 331.00 200.00 L 330.00 200.00 L 330.00 198.00 L 331.00 198.00 Z M 351.00 197.00 L 350.00 199.00 L 351.00 199.00 L 352.00 197.00 Z M 399.00 197.00 L 400.00 197.00 L 400.00 198.00 L 399.00 198.00 Z M 275.00 198.00 L 275.00 199.00 L 277.00 199.00 L 277.00 198.00 L 276.00 198.00 Z M 398.00 198.00 L 398.00 199.00 L 399.00 199.00 L 399.00 198.00 L 400.00 198.00 L 400.00 197.00 L 399.00 197.00 L 399.00 198.00 Z M 278.00 199.00 L 279.00 199.00 L 279.00 200.00 L 278.00 200.00 Z M 280.00 199.00 L 280.00 200.00 L 281.00 200.00 L 281.00 199.00 Z M 346.00 199.00 L 348.00 199.00 L 348.00 200.00 L 346.00 200.00 Z M 392.00 199.00 L 397.00 199.00 L 397.00 200.00 L 392.00 200.00 Z M 264.00 200.00 L 264.00 201.00 L 265.00 201.00 L 265.00 200.00 Z M 336.00 200.00 L 336.00 201.00 L 342.00 201.00 L 342.00 200.00 L 337.00 200.00 Z M 327.00 202.00 L 327.00 207.00 L 328.00 207.00 L 328.00 202.00 Z M 262.00 208.00 L 262.00 209.00 L 263.00 209.00 L 263.00 208.00 Z M 435.00 208.00 L 435.00 209.00 L 436.00 209.00 L 436.00 208.00 Z M 414.00 211.00 L 415.00 211.00 L 415.00 212.00 L 414.00 212.00 Z M 300.00 218.00 L 300.00 220.00 L 301.00 220.00 L 301.00 218.00 Z M 300.00 222.00 L 300.00 227.00 L 301.00 227.00 L 301.00 222.00 Z M 91.00 225.00 L 91.00 226.00 L 92.00 226.00 L 92.00 225.00 Z M 237.00 231.00 L 237.00 232.00 L 238.00 232.00 L 238.00 231.00 Z M 304.00 231.00 L 304.00 232.00 L 305.00 232.00 L 305.00 249.00 L 304.00 249.00 L 304.00 250.00 L 388.00 250.00 L 388.00 251.00 L 389.00 251.00 L 389.00 231.00 L 305.00 231.00 Z M 307.00 248.00 L 307.00 249.00 L 308.00 249.00 L 308.00 248.00 Z M 379.00 248.00 L 379.00 249.00 L 388.00 249.00 L 388.00 248.00 L 380.00 248.00 Z M 390.00 272.00 L 390.00 293.00 L 368.00 293.00 L 368.00 294.00 L 369.00 294.00 L 369.00 313.00 L 411.00 313.00 L 411.00 272.00 L 391.00 272.00 Z" fill="#f3f5f8" />
</svg>